<?xml version="1.0" encoding="UTF-8" standalone="no"?><svg xmlns="http://www.w3.org/2000/svg" xmlns:xlink="http://www.w3.org/1999/xlink" clip-rule="evenodd" stroke-miterlimit="10" viewBox="0 0 1024 768"><desc>SVG generated by Keynote</desc><defs></defs><g transform="matrix(1.00, 0.00, -0.00, -1.00, 0.0, 768.0)"><path d="M 0.0 768.0 L 1024.0 768.0 L 1024.0 0.0 L 0.0 0.0 Z M 0.0 768.0 " fill="#000000"></path><text xml:space="preserve" font-family="Impact,Impact" font-weight="bold" font-size="91.0" fill="#FEFFFF" transform="matrix(1.00, 0.00, -0.00, -1.00, 202.5, 605.1)">F</text><text xml:space="preserve" font-family="Impact,Impact" font-weight="bold" font-size="91.0" fill="#FEFFFF" transform="matrix(1.00, 0.00, -0.00, -1.00, 238.7, 605.1)">o</text><text xml:space="preserve" font-family="Impact,Impact" font-weight="bold" font-size="91.0" fill="#FEFFFF" transform="matrix(1.00, 0.00, -0.00, -1.00, 285.3, 605.1)">u</text><text xml:space="preserve" font-family="Impact,Impact" font-weight="bold" font-size="91.0" fill="#FEFFFF" transform="matrix(1.00, 0.00, -0.00, -1.00, 332.9, 605.1)">n</text><text xml:space="preserve" font-family="Impact,Impact" font-weight="bold" font-size="91.0" fill="#FEFFFF" transform="matrix(1.00, 0.00, -0.00, -1.00, 380.5, 605.1)">d</text><text xml:space="preserve" font-family="Impact,Impact" font-weight="bold" font-size="91.0" fill="#FEFFFF" transform="matrix(1.00, 0.00, -0.00, -1.00, 427.7, 605.1)">e</text><text xml:space="preserve" font-family="Impact,Impact" font-weight="bold" font-size="91.0" fill="#FEFFFF" transform="matrix(1.00, 0.00, -0.00, -1.00, 474.2, 605.1)">r</text><text xml:space="preserve" font-family="Impact,Impact" font-weight="bold" font-size="91.0" fill="#FEFFFF" transform="matrix(1.00, 0.00, -0.00, -1.00, 506.8, 605.1)"> </text><text xml:space="preserve" font-family="Impact,Impact" font-weight="bold" font-size="91.0" fill="#FEFFFF" transform="matrix(1.00, 0.00, -0.00, -1.00, 522.8, 605.1)">a</text><text xml:space="preserve" font-family="Impact,Impact" font-weight="bold" font-size="91.0" fill="#FEFFFF" transform="matrix(1.00, 0.00, -0.00, -1.00, 568.7, 605.1)">n</text><text xml:space="preserve" font-family="Impact,Impact" font-weight="bold" font-size="91.0" fill="#FEFFFF" transform="matrix(1.00, 0.00, -0.00, -1.00, 616.3, 605.1)">d</text><text xml:space="preserve" font-family="Impact,Impact" font-weight="bold" font-size="91.0" fill="#FEFFFF" transform="matrix(1.00, 0.00, -0.00, -1.00, 663.5, 605.1)"> </text><text xml:space="preserve" font-family="Impact,Impact" font-weight="bold" font-size="91.0" fill="#FEFFFF" transform="matrix(1.00, 0.00, -0.00, -1.00, 679.6, 605.1)">c</text><text xml:space="preserve" font-family="Impact,Impact" font-weight="bold" font-size="91.0" fill="#FEFFFF" transform="matrix(1.00, 0.00, -0.00, -1.00, 724.6, 605.1)">o</text><text xml:space="preserve" font-family="Impact,Impact" font-weight="bold" font-size="91.0" fill="#FEFFFF" transform="matrix(1.00, 0.00, -0.00, -1.00, 771.1, 605.1)">-</text><text xml:space="preserve" font-family="Impact,Impact" font-weight="bold" font-size="91.0" fill="#FEFFFF" transform="matrix(1.00, 0.00, -0.00, -1.00, 322.4, 494.1)">o</text><text xml:space="preserve" font-family="Impact,Impact" font-weight="bold" font-size="91.0" fill="#FEFFFF" transform="matrix(1.00, 0.00, -0.00, -1.00, 368.9, 494.1)">r</text><text xml:space="preserve" font-family="Impact,Impact" font-weight="bold" font-size="91.0" fill="#FEFFFF" transform="matrix(1.00, 0.00, -0.00, -1.00, 401.5, 494.1)">g</text><text xml:space="preserve" font-family="Impact,Impact" font-weight="bold" font-size="91.0" fill="#FEFFFF" transform="matrix(1.00, 0.00, -0.00, -1.00, 448.6, 494.1)">a</text><text xml:space="preserve" font-family="Impact,Impact" font-weight="bold" font-size="91.0" fill="#FEFFFF" transform="matrix(1.00, 0.00, -0.00, -1.00, 494.5, 494.1)">n</text><text xml:space="preserve" font-family="Impact,Impact" font-weight="bold" font-size="91.0" fill="#FEFFFF" transform="matrix(1.00, 0.00, -0.00, -1.00, 542.1, 494.1)">i</text><text xml:space="preserve" font-family="Impact,Impact" font-weight="bold" font-size="91.0" fill="#FEFFFF" transform="matrix(1.00, 0.00, -0.00, -1.00, 567.0, 494.1)">z</text><text xml:space="preserve" font-family="Impact,Impact" font-weight="bold" font-size="91.0" fill="#FEFFFF" transform="matrix(1.00, 0.00, -0.00, -1.00, 599.0, 494.1)">e</text><text xml:space="preserve" font-family="Impact,Impact" font-weight="bold" font-size="91.0" fill="#FEFFFF" transform="matrix(1.00, 0.00, -0.00, -1.00, 645.5, 494.1)">r</text><text xml:space="preserve" font-family="Impact,Impact" font-weight="bold" font-size="91.0" fill="#FEFFFF" transform="matrix(1.00, 0.00, -0.00, -1.00, 678.1, 494.1)"> </text><text xml:space="preserve" font-family="Impact,Impact" font-weight="bold" font-size="91.0" fill="#FEFFFF" transform="matrix(1.00, 0.00, -0.00, -1.00, 376.3, 383.1)">o</text><text xml:space="preserve" font-family="Impact,Impact" font-weight="bold" font-size="91.0" fill="#FEFFFF" transform="matrix(1.00, 0.00, -0.00, -1.00, 422.9, 383.1)">f</text><text xml:space="preserve" font-family="Impact,Impact" font-weight="bold" font-size="91.0" fill="#FEFFFF" transform="matrix(1.00, 0.00, -0.00, -1.00, 449.2, 383.1)"> </text><text xml:space="preserve" font-family="Impact,Impact" font-weight="bold" font-size="91.0" fill="#FEFFFF" transform="matrix(1.00, 0.00, -0.00, -1.00, 465.3, 383.1)">L</text><text xml:space="preserve" font-family="Impact,Impact" font-weight="bold" font-size="91.0" fill="#FEFFFF" transform="matrix(1.00, 0.00, -0.00, -1.00, 501.3, 383.1)">X</text><text xml:space="preserve" font-family="Impact,Impact" font-weight="bold" font-size="91.0" fill="#FEFFFF" transform="matrix(1.00, 0.00, -0.00, -1.00, 547.0, 383.1)">J</text><text xml:space="preserve" font-family="Impact,Impact" font-weight="bold" font-size="91.0" fill="#FEFFFF" transform="matrix(1.00, 0.00, -0.00, -1.00, 577.1, 383.1)">S</text><text xml:space="preserve" font-family="Impact,Impact" font-weight="bold" font-size="91.0" fill="#FEFFFF" transform="matrix(1.00, 0.00, -0.00, -1.00, 624.2, 383.1)"> </text><image xlink:href="C1E7543097528C1FB42AAFBD17E04652.png" width="150.00" height="220.00" transform="matrix(1.00, 0.00, -0.00, -1.00, 425.0, 316.0)"></image></g></svg>