<?xml version="1.0" encoding="UTF-8" standalone="no"?><svg xmlns="http://www.w3.org/2000/svg" xmlns:xlink="http://www.w3.org/1999/xlink" clip-rule="evenodd" stroke-miterlimit="10" viewBox="0 0 1024 768"><desc>SVG generated by Keynote</desc><defs></defs><g transform="matrix(1.00, 0.00, -0.00, -1.00, 0.0, 768.0)"><path d="M 0.0 768.0 L 1024.0 768.0 L 1024.0 0.0 L 0.0 0.0 Z M 0.0 768.0 " fill="#000000"></path><text xml:space="preserve" font-family="Impact,Impact" font-weight="bold" font-size="89.2" fill="#FEFFFF" transform="matrix(1.00, 0.00, -0.00, -1.00, 132.5, 564.5)">D</text><text xml:space="preserve" font-family="Impact,Impact" font-weight="bold" font-size="89.2" fill="#FEFFFF" transform="matrix(1.00, 0.00, -0.00, -1.00, 181.8, 564.5)">i</text><text xml:space="preserve" font-family="Impact,Impact" font-weight="bold" font-size="89.2" fill="#FEFFFF" transform="matrix(1.00, 0.00, -0.00, -1.00, 206.2, 564.5)">r</text><text xml:space="preserve" font-family="Impact,Impact" font-weight="bold" font-size="89.2" fill="#FEFFFF" transform="matrix(1.00, 0.00, -0.00, -1.00, 238.1, 564.5)">e</text><text xml:space="preserve" font-family="Impact,Impact" font-weight="bold" font-size="89.2" fill="#FEFFFF" transform="matrix(1.00, 0.00, -0.00, -1.00, 283.7, 564.5)">c</text><text xml:space="preserve" font-family="Impact,Impact" font-weight="bold" font-size="89.2" fill="#FEFFFF" transform="matrix(1.00, 0.00, -0.00, -1.00, 327.8, 564.5)">t</text><text xml:space="preserve" font-family="Impact,Impact" font-weight="bold" font-size="89.2" fill="#FEFFFF" transform="matrix(1.00, 0.00, -0.00, -1.00, 355.0, 564.5)">o</text><text xml:space="preserve" font-family="Impact,Impact" font-weight="bold" font-size="89.2" fill="#FEFFFF" transform="matrix(1.00, 0.00, -0.00, -1.00, 400.6, 564.5)">r</text><text xml:space="preserve" font-family="Impact,Impact" font-weight="bold" font-size="89.2" fill="#FEFFFF" transform="matrix(1.00, 0.00, -0.00, -1.00, 432.5, 564.5)"> </text><text xml:space="preserve" font-family="Impact,Impact" font-weight="bold" font-size="89.2" fill="#FEFFFF" transform="matrix(1.00, 0.00, -0.00, -1.00, 448.3, 564.5)">a</text><text xml:space="preserve" font-family="Impact,Impact" font-weight="bold" font-size="89.2" fill="#FEFFFF" transform="matrix(1.00, 0.00, -0.00, -1.00, 493.2, 564.5)">t</text><text xml:space="preserve" font-family="Impact,Impact" font-weight="bold" font-size="89.2" fill="#FEFFFF" transform="matrix(1.00, 0.00, -0.00, -1.00, 520.3, 564.5)"> </text><text xml:space="preserve" font-family="Impact,Impact" font-weight="bold" font-size="89.2" fill="#FEFFFF" transform="matrix(1.00, 0.00, -0.00, -1.00, 536.1, 564.5)">Y</text><text xml:space="preserve" font-family="Impact,Impact" font-weight="bold" font-size="89.2" fill="#FEFFFF" transform="matrix(1.00, 0.00, -0.00, -1.00, 578.3, 564.5)">L</text><text xml:space="preserve" font-family="Impact,Impact" font-weight="bold" font-size="89.2" fill="#FEFFFF" transform="matrix(1.00, 0.00, -0.00, -1.00, 612.3, 564.5)">D</text><image xlink:href="../../46E5427C-EF5E-46F1-9A82-E2238A085D59/assets/26699594ABFC0B2DA8D309C3B3A0C603.png" width="400.00" height="400.00" transform="matrix(1.00, 0.00, -0.00, -1.00, 482.0, 527.0)"></image><text xml:space="preserve" font-family="Impact,Impact" font-weight="bold" font-size="69.0" fill="#FEFFFF" transform="matrix(1.00, 0.00, -0.00, -1.00, 178.4, 182.2)">h</text><text xml:space="preserve" font-family="Impact,Impact" font-weight="bold" font-size="69.0" fill="#FEFFFF" transform="matrix(1.00, 0.00, -0.00, -1.00, 214.6, 182.2)">t</text><text xml:space="preserve" font-family="Impact,Impact" font-weight="bold" font-size="69.0" fill="#FEFFFF" transform="matrix(1.00, 0.00, -0.00, -1.00, 235.6, 182.2)">t</text><text xml:space="preserve" font-family="Impact,Impact" font-weight="bold" font-size="69.0" fill="#FEFFFF" transform="matrix(1.00, 0.00, -0.00, -1.00, 256.6, 182.2)">p</text><text xml:space="preserve" font-family="Impact,Impact" font-weight="bold" font-size="69.0" fill="#FEFFFF" transform="matrix(1.00, 0.00, -0.00, -1.00, 292.4, 182.2)">:</text><text xml:space="preserve" font-family="Impact,Impact" font-weight="bold" font-size="69.0" fill="#FEFFFF" transform="matrix(1.00, 0.00, -0.00, -1.00, 306.4, 182.2)">/</text><text xml:space="preserve" font-family="Impact,Impact" font-weight="bold" font-size="69.0" fill="#FEFFFF" transform="matrix(1.00, 0.00, -0.00, -1.00, 333.6, 182.2)">/</text><text xml:space="preserve" font-family="Impact,Impact" font-weight="bold" font-size="69.0" fill="#FEFFFF" transform="matrix(1.00, 0.00, -0.00, -1.00, 360.9, 182.2)">y</text><text xml:space="preserve" font-family="Impact,Impact" font-weight="bold" font-size="69.0" fill="#FEFFFF" transform="matrix(1.00, 0.00, -0.00, -1.00, 391.8, 182.2)">l</text><text xml:space="preserve" font-family="Impact,Impact" font-weight="bold" font-size="69.0" fill="#FEFFFF" transform="matrix(1.00, 0.00, -0.00, -1.00, 410.7, 182.2)">d</text><text xml:space="preserve" font-family="Impact,Impact" font-weight="bold" font-size="69.0" fill="#FEFFFF" transform="matrix(1.00, 0.00, -0.00, -1.00, 446.5, 182.2)">.</text><text xml:space="preserve" font-family="Impact,Impact" font-weight="bold" font-size="69.0" fill="#FEFFFF" transform="matrix(1.00, 0.00, -0.00, -1.00, 459.2, 182.2)">i</text><text xml:space="preserve" font-family="Impact,Impact" font-weight="bold" font-size="69.0" fill="#FEFFFF" transform="matrix(1.00, 0.00, -0.00, -1.00, 478.1, 182.2)">o</text><g><clipPath id="clip0x608000abda60"><path d="M 177.4 172.6 L 513.6 172.6 L 513.6 178.0 L 177.4 178.0 Z M 177.4 172.6 "></path></clipPath><g clip-path="url(#clip0x608000abda60)"><path d="M 307.5 93.4 L 642.6 93.4 " fill="none" stroke="#FEFFFF" stroke-width="3.44" transform="matrix(1.00, 0.00, 0.00, -1.00, -129.1, 268.7)"></path></g></g></g></svg>