<?xml version="1.0" encoding="UTF-8" standalone="no"?><svg xmlns="http://www.w3.org/2000/svg" xmlns:xlink="http://www.w3.org/1999/xlink" clip-rule="evenodd" stroke-miterlimit="10" viewBox="0 0 1024 768"><desc>SVG generated by Keynote</desc><defs></defs><g transform="matrix(1.00, 0.00, -0.00, -1.00, 0.0, 768.0)"><path d="M 0.0 768.0 L 1024.0 768.0 L 1024.0 0.0 L 0.0 0.0 Z M 0.0 768.0 " fill="#000000"></path><text xml:space="preserve" font-family="Impact,Impact" font-weight="bold" font-size="89.2" fill="#FEFFFF" transform="matrix(1.00, 0.00, -0.00, -1.00, 125.1, 638.5)">L</text><text xml:space="preserve" font-family="Impact,Impact" font-weight="bold" font-size="89.2" fill="#FEFFFF" transform="matrix(1.00, 0.00, -0.00, -1.00, 159.1, 638.5)">E</text><text xml:space="preserve" font-family="Impact,Impact" font-weight="bold" font-size="89.2" fill="#FEFFFF" transform="matrix(1.00, 0.00, -0.00, -1.00, 194.9, 638.5)">T</text><text xml:space="preserve" font-family="Impact,Impact" font-weight="bold" font-size="89.2" fill="#FEFFFF" transform="matrix(1.00, 0.00, -0.00, -1.00, 236.0, 638.5)">’</text><text xml:space="preserve" font-family="Impact,Impact" font-weight="bold" font-size="89.2" fill="#FEFFFF" transform="matrix(1.00, 0.00, -0.00, -1.00, 251.0, 638.5)">S</text><text xml:space="preserve" font-family="Impact,Impact" font-weight="bold" font-size="89.2" fill="#FEFFFF" transform="matrix(1.00, 0.00, -0.00, -1.00, 297.1, 638.5)"> </text><text xml:space="preserve" font-family="Impact,Impact" font-weight="bold" font-size="89.2" fill="#FEFFFF" transform="matrix(1.00, 0.00, -0.00, -1.00, 312.9, 638.5)">S</text><text xml:space="preserve" font-family="Impact,Impact" font-weight="bold" font-size="89.2" fill="#FEFFFF" transform="matrix(1.00, 0.00, -0.00, -1.00, 359.0, 638.5)">E</text><text xml:space="preserve" font-family="Impact,Impact" font-weight="bold" font-size="89.2" fill="#FEFFFF" transform="matrix(1.00, 0.00, -0.00, -1.00, 396.0, 638.5)">E</text><text xml:space="preserve" font-family="Impact,Impact" font-weight="bold" font-size="89.2" fill="#FEFFFF" transform="matrix(1.00, 0.00, -0.00, -1.00, 433.0, 638.5)"> </text><text xml:space="preserve" font-family="Impact,Impact" font-weight="bold" font-size="89.2" fill="#FEFFFF" transform="matrix(1.00, 0.00, -0.00, -1.00, 448.8, 638.5)">S</text><text xml:space="preserve" font-family="Impact,Impact" font-weight="bold" font-size="89.2" fill="#FEFFFF" transform="matrix(1.00, 0.00, -0.00, -1.00, 494.9, 638.5)">O</text><text xml:space="preserve" font-family="Impact,Impact" font-weight="bold" font-size="89.2" fill="#FEFFFF" transform="matrix(1.00, 0.00, -0.00, -1.00, 543.7, 638.5)">M</text><text xml:space="preserve" font-family="Impact,Impact" font-weight="bold" font-size="89.2" fill="#FEFFFF" transform="matrix(1.00, 0.00, -0.00, -1.00, 607.6, 638.5)">E</text><text xml:space="preserve" font-family="Impact,Impact" font-weight="bold" font-size="89.2" fill="#FEFFFF" transform="matrix(1.00, 0.00, -0.00, -1.00, 644.6, 638.5)"> </text><text xml:space="preserve" font-family="Impact,Impact" font-weight="bold" font-size="89.2" fill="#FEFFFF" transform="matrix(1.00, 0.00, -0.00, -1.00, 660.3, 638.5)">H</text><text xml:space="preserve" font-family="Impact,Impact" font-weight="bold" font-size="89.2" fill="#FEFFFF" transform="matrix(1.00, 0.00, -0.00, -1.00, 709.9, 638.5)">A</text><text xml:space="preserve" font-family="Impact,Impact" font-weight="bold" font-size="89.2" fill="#FEFFFF" transform="matrix(1.00, 0.00, -0.00, -1.00, 755.1, 638.5)">N</text><text xml:space="preserve" font-family="Impact,Impact" font-weight="bold" font-size="89.2" fill="#FEFFFF" transform="matrix(1.00, 0.00, -0.00, -1.00, 803.4, 638.5)">D</text><text xml:space="preserve" font-family="Impact,Impact" font-weight="bold" font-size="89.2" fill="#FEFFFF" transform="matrix(1.00, 0.00, -0.00, -1.00, 852.6, 638.5)">S</text><image xlink:href="../../AFA26899-1C02-46BB-AEA3-55DF6B2B5358/assets/C4AB01E77E42C55F6FF8DEA9403E618B.png" width="600.00" height="450.00" transform="matrix(1.00, 0.00, -0.00, -1.00, 212.0, 552.0)"></image></g></svg>