<?xml version="1.0" encoding="UTF-8" standalone="no"?><svg xmlns="http://www.w3.org/2000/svg" xmlns:xlink="http://www.w3.org/1999/xlink" clip-rule="evenodd" stroke-miterlimit="10" viewBox="0 0 1024 768"><desc>SVG generated by Keynote</desc><defs></defs><g transform="matrix(1.00, 0.00, -0.00, -1.00, 0.0, 768.0)"><path d="M 0.0 768.0 L 1024.0 768.0 L 1024.0 0.0 L 0.0 0.0 Z M 0.0 768.0 " fill="#000000"></path><image xlink:href="B49E95CAEF9FD3C7D7949D9F562E143C.png" width="521.00" height="177.00" transform="matrix(0.82, 0.00, -0.00, -0.82, 34.0, 165.0)"></image><text xml:space="preserve" font-family="Impact,Impact" font-weight="bold" font-size="80.0" fill="#FEFFFF" transform="matrix(1.00, 0.00, -0.00, -1.00, 294.5, 595.0)">C</text><text xml:space="preserve" font-family="Impact,Impact" font-weight="bold" font-size="80.0" fill="#FEFFFF" transform="matrix(1.00, 0.00, -0.00, -1.00, 338.8, 595.0)">O</text><text xml:space="preserve" font-family="Impact,Impact" font-weight="bold" font-size="80.0" fill="#FEFFFF" transform="matrix(1.00, 0.00, -0.00, -1.00, 382.6, 595.0)">N</text><text xml:space="preserve" font-family="Impact,Impact" font-weight="bold" font-size="80.0" fill="#FEFFFF" transform="matrix(1.00, 0.00, -0.00, -1.00, 425.9, 595.0)">F</text><text xml:space="preserve" font-family="Impact,Impact" font-weight="bold" font-size="80.0" fill="#FEFFFF" transform="matrix(1.00, 0.00, -0.00, -1.00, 457.7, 595.0)">E</text><text xml:space="preserve" font-family="Impact,Impact" font-weight="bold" font-size="80.0" fill="#FEFFFF" transform="matrix(1.00, 0.00, -0.00, -1.00, 490.9, 595.0)">R</text><text xml:space="preserve" font-family="Impact,Impact" font-weight="bold" font-size="80.0" fill="#FEFFFF" transform="matrix(1.00, 0.00, -0.00, -1.00, 533.9, 595.0)">E</text><text xml:space="preserve" font-family="Impact,Impact" font-weight="bold" font-size="80.0" fill="#FEFFFF" transform="matrix(1.00, 0.00, -0.00, -1.00, 567.2, 595.0)">N</text><text xml:space="preserve" font-family="Impact,Impact" font-weight="bold" font-size="80.0" fill="#FEFFFF" transform="matrix(1.00, 0.00, -0.00, -1.00, 610.5, 595.0)">C</text><text xml:space="preserve" font-family="Impact,Impact" font-weight="bold" font-size="80.0" fill="#FEFFFF" transform="matrix(1.00, 0.00, -0.00, -1.00, 654.7, 595.0)">E</text><text xml:space="preserve" font-family="Impact,Impact" font-weight="bold" font-size="80.0" fill="#FEFFFF" transform="matrix(1.00, 0.00, -0.00, -1.00, 688.0, 595.0)">S</text><image xlink:href="../../B61DC5D9-2D66-4A86-962D-87F18FF08FBE/assets/C1E7543097528C1FB42AAFBD17E04652.png" width="150.00" height="220.00" transform="matrix(1.24, 0.00, -0.00, -1.24, 54.0, 575.0)"></image><image xlink:href="../../22E4B071-4433-4DD4-9C12-EB4E17A4C71A/assets/984FD498EBEFE260BD284A0E477041FA.png" width="1052.00" height="1052.00" transform="matrix(0.27, 0.00, -0.00, -0.27, 292.0, 580.0)"></image><image xlink:href="E5D01CFC1CECFD6F45A4AFBE8ADEA0BE.png" width="800.00" height="800.00" transform="matrix(0.35, 0.00, -0.00, -0.35, 651.0, 580.0)"></image><image xlink:href="ED117C2E7ABD129C952918763CBC7A05.png" width="528.00" height="87.00" transform="matrix(1.00, 0.00, -0.00, -1.00, 71.0, 293.0)"></image><image xlink:href="B19231999456213EECB3675FD76311DC.png" width="510.00" height="48.00" transform="matrix(1.00, 0.00, -0.00, -1.00, 499.0, 198.0)"></image><image xlink:href="82AC5CA0ED2294FDC0AAD0CC68563EEC.png" width="201.00" height="131.00" transform="matrix(1.00, 0.00, -0.00, -1.00, 692.0, 142.0)"></image></g></svg>