<?xml version="1.0" encoding="UTF-8" standalone="no"?><svg xmlns="http://www.w3.org/2000/svg" xmlns:xlink="http://www.w3.org/1999/xlink" clip-rule="evenodd" stroke-miterlimit="10" viewBox="0 0 1024 768"><desc>SVG generated by Keynote</desc><defs></defs><g transform="matrix(1.00, 0.00, -0.00, -1.00, 0.0, 768.0)"><path d="M 0.0 768.0 L 1024.0 768.0 L 1024.0 0.0 L 0.0 0.0 Z M 0.0 768.0 " fill="#000000"></path><text xml:space="preserve" font-family="Impact,Impact" font-weight="bold" font-size="80.0" fill="#FEFFFF" transform="matrix(1.00, 0.00, -0.00, -1.00, 166.7, 449.7)">(</text><text xml:space="preserve" font-family="Impact,Impact" font-weight="bold" font-size="80.0" fill="#FEFFFF" transform="matrix(1.00, 0.00, -0.00, -1.00, 193.9, 449.7)">A</text><text xml:space="preserve" font-family="Impact,Impact" font-weight="bold" font-size="80.0" fill="#FEFFFF" transform="matrix(1.00, 0.00, -0.00, -1.00, 234.5, 449.7)">L</text><text xml:space="preserve" font-family="Impact,Impact" font-weight="bold" font-size="80.0" fill="#FEFFFF" transform="matrix(1.00, 0.00, -0.00, -1.00, 264.4, 449.7)">S</text><text xml:space="preserve" font-family="Impact,Impact" font-weight="bold" font-size="80.0" fill="#FEFFFF" transform="matrix(1.00, 0.00, -0.00, -1.00, 305.8, 449.7)">O</text><text xml:space="preserve" font-family="Impact,Impact" font-weight="bold" font-size="80.0" fill="#FEFFFF" transform="matrix(1.00, 0.00, -0.00, -1.00, 349.5, 449.7)">,</text><text xml:space="preserve" font-family="Impact,Impact" font-weight="bold" font-size="80.0" fill="#FEFFFF" transform="matrix(1.00, 0.00, -0.00, -1.00, 362.9, 449.7)"> </text><text xml:space="preserve" font-family="Impact,Impact" font-weight="bold" font-size="80.0" fill="#FEFFFF" transform="matrix(1.00, 0.00, -0.00, -1.00, 377.1, 449.7)">J</text><text xml:space="preserve" font-family="Impact,Impact" font-weight="bold" font-size="80.0" fill="#FEFFFF" transform="matrix(1.00, 0.00, -0.00, -1.00, 403.5, 449.7)">S</text><text xml:space="preserve" font-family="Impact,Impact" font-weight="bold" font-size="80.0" fill="#FEFFFF" transform="matrix(1.00, 0.00, -0.00, -1.00, 444.9, 449.7)"> </text><text xml:space="preserve" font-family="Impact,Impact" font-weight="bold" font-size="80.0" fill="#FEFFFF" transform="matrix(1.00, 0.00, -0.00, -1.00, 459.0, 449.7)">C</text><text xml:space="preserve" font-family="Impact,Impact" font-weight="bold" font-size="80.0" fill="#FEFFFF" transform="matrix(1.00, 0.00, -0.00, -1.00, 503.3, 449.7)">A</text><text xml:space="preserve" font-family="Impact,Impact" font-weight="bold" font-size="80.0" fill="#FEFFFF" transform="matrix(1.00, 0.00, -0.00, -1.00, 543.9, 449.7)">N</text><text xml:space="preserve" font-family="Impact,Impact" font-weight="bold" font-size="80.0" fill="#FEFFFF" transform="matrix(1.00, 0.00, -0.00, -1.00, 587.2, 449.7)"> </text><text xml:space="preserve" font-family="Impact,Impact" font-weight="bold" font-size="80.0" fill="#FEFFFF" transform="matrix(1.00, 0.00, -0.00, -1.00, 601.3, 449.7)">B</text><text xml:space="preserve" font-family="Impact,Impact" font-weight="bold" font-size="80.0" fill="#FEFFFF" transform="matrix(1.00, 0.00, -0.00, -1.00, 645.5, 449.7)">E</text><text xml:space="preserve" font-family="Impact,Impact" font-weight="bold" font-size="80.0" fill="#FEFFFF" transform="matrix(1.00, 0.00, -0.00, -1.00, 678.7, 449.7)">C</text><text xml:space="preserve" font-family="Impact,Impact" font-weight="bold" font-size="80.0" fill="#FEFFFF" transform="matrix(1.00, 0.00, -0.00, -1.00, 723.0, 449.7)">O</text><text xml:space="preserve" font-family="Impact,Impact" font-weight="bold" font-size="80.0" fill="#FEFFFF" transform="matrix(1.00, 0.00, -0.00, -1.00, 766.8, 449.7)">M</text><text xml:space="preserve" font-family="Impact,Impact" font-weight="bold" font-size="80.0" fill="#FEFFFF" transform="matrix(1.00, 0.00, -0.00, -1.00, 824.1, 449.7)">E</text><text xml:space="preserve" font-family="Impact,Impact" font-weight="bold" font-size="80.0" fill="#FEFFFF" transform="matrix(1.00, 0.00, -0.00, -1.00, 857.3, 449.7)"> </text><text xml:space="preserve" font-family="Impact,Impact" font-weight="bold" font-size="80.0" fill="#FEFFFF" transform="matrix(1.00, 0.00, -0.00, -1.00, 160.0, 351.7)">Q</text><text xml:space="preserve" font-family="Impact,Impact" font-weight="bold" font-size="80.0" fill="#FEFFFF" transform="matrix(1.00, 0.00, -0.00, -1.00, 203.7, 351.7)">U</text><text xml:space="preserve" font-family="Impact,Impact" font-weight="bold" font-size="80.0" fill="#FEFFFF" transform="matrix(1.00, 0.00, -0.00, -1.00, 247.5, 351.7)">I</text><text xml:space="preserve" font-family="Impact,Impact" font-weight="bold" font-size="80.0" fill="#FEFFFF" transform="matrix(1.00, 0.00, -0.00, -1.00, 270.5, 351.7)">T</text><text xml:space="preserve" font-family="Impact,Impact" font-weight="bold" font-size="80.0" fill="#FEFFFF" transform="matrix(1.00, 0.00, -0.00, -1.00, 307.4, 351.7)">E</text><text xml:space="preserve" font-family="Impact,Impact" font-weight="bold" font-size="80.0" fill="#FEFFFF" transform="matrix(1.00, 0.00, -0.00, -1.00, 340.6, 351.7)"> </text><text xml:space="preserve" font-family="Impact,Impact" font-weight="bold" font-size="80.0" fill="#FEFFFF" transform="matrix(1.00, 0.00, -0.00, -1.00, 354.7, 351.7)">M</text><text xml:space="preserve" font-family="Impact,Impact" font-weight="bold" font-size="80.0" fill="#FEFFFF" transform="matrix(1.00, 0.00, -0.00, -1.00, 412.0, 351.7)">E</text><text xml:space="preserve" font-family="Impact,Impact" font-weight="bold" font-size="80.0" fill="#FEFFFF" transform="matrix(1.00, 0.00, -0.00, -1.00, 445.2, 351.7)">S</text><text xml:space="preserve" font-family="Impact,Impact" font-weight="bold" font-size="80.0" fill="#FEFFFF" transform="matrix(1.00, 0.00, -0.00, -1.00, 486.6, 351.7)">S</text><text xml:space="preserve" font-family="Impact,Impact" font-weight="bold" font-size="80.0" fill="#FEFFFF" transform="matrix(1.00, 0.00, -0.00, -1.00, 528.0, 351.7)">Y</text><text xml:space="preserve" font-family="Impact,Impact" font-weight="bold" font-size="80.0" fill="#FEFFFF" transform="matrix(1.00, 0.00, -0.00, -1.00, 565.8, 351.7)"> </text><text xml:space="preserve" font-family="Impact,Impact" font-weight="bold" font-size="80.0" fill="#FEFFFF" transform="matrix(1.00, 0.00, -0.00, -1.00, 580.0, 351.7)">I</text><text xml:space="preserve" font-family="Impact,Impact" font-weight="bold" font-size="80.0" fill="#FEFFFF" transform="matrix(1.00, 0.00, -0.00, -1.00, 603.0, 351.7)">F</text><text xml:space="preserve" font-family="Impact,Impact" font-weight="bold" font-size="80.0" fill="#FEFFFF" transform="matrix(1.00, 0.00, -0.00, -1.00, 634.9, 351.7)"> </text><text xml:space="preserve" font-family="Impact,Impact" font-weight="bold" font-size="80.0" fill="#FEFFFF" transform="matrix(1.00, 0.00, -0.00, -1.00, 649.0, 351.7)">Y</text><text xml:space="preserve" font-family="Impact,Impact" font-weight="bold" font-size="80.0" fill="#FEFFFF" transform="matrix(1.00, 0.00, -0.00, -1.00, 686.8, 351.7)">O</text><text xml:space="preserve" font-family="Impact,Impact" font-weight="bold" font-size="80.0" fill="#FEFFFF" transform="matrix(1.00, 0.00, -0.00, -1.00, 730.6, 351.7)">U</text><text xml:space="preserve" font-family="Impact,Impact" font-weight="bold" font-size="80.0" fill="#FEFFFF" transform="matrix(1.00, 0.00, -0.00, -1.00, 774.3, 351.7)">’</text><text xml:space="preserve" font-family="Impact,Impact" font-weight="bold" font-size="80.0" fill="#FEFFFF" transform="matrix(1.00, 0.00, -0.00, -1.00, 787.8, 351.7)">R</text><text xml:space="preserve" font-family="Impact,Impact" font-weight="bold" font-size="80.0" fill="#FEFFFF" transform="matrix(1.00, 0.00, -0.00, -1.00, 830.8, 351.7)">E</text><text xml:space="preserve" font-family="Impact,Impact" font-weight="bold" font-size="80.0" fill="#FEFFFF" transform="matrix(1.00, 0.00, -0.00, -1.00, 864.0, 351.7)"> </text><text xml:space="preserve" font-family="Impact,Impact" font-weight="bold" font-size="80.0" fill="#FEFFFF" transform="matrix(1.00, 0.00, -0.00, -1.00, 296.8, 253.7)">N</text><text xml:space="preserve" font-family="Impact,Impact" font-weight="bold" font-size="80.0" fill="#FEFFFF" transform="matrix(1.00, 0.00, -0.00, -1.00, 340.1, 253.7)">O</text><text xml:space="preserve" font-family="Impact,Impact" font-weight="bold" font-size="80.0" fill="#FEFFFF" transform="matrix(1.00, 0.00, -0.00, -1.00, 383.9, 253.7)">T</text><text xml:space="preserve" font-family="Impact,Impact" font-weight="bold" font-size="80.0" fill="#FEFFFF" transform="matrix(1.00, 0.00, -0.00, -1.00, 420.7, 253.7)"> </text><text xml:space="preserve" font-family="Impact,Impact" font-weight="bold" font-size="80.0" fill="#FEFFFF" transform="matrix(1.00, 0.00, -0.00, -1.00, 434.8, 253.7)">C</text><text xml:space="preserve" font-family="Impact,Impact" font-weight="bold" font-size="80.0" fill="#FEFFFF" transform="matrix(1.00, 0.00, -0.00, -1.00, 479.1, 253.7)">A</text><text xml:space="preserve" font-family="Impact,Impact" font-weight="bold" font-size="80.0" fill="#FEFFFF" transform="matrix(1.00, 0.00, -0.00, -1.00, 519.7, 253.7)">R</text><text xml:space="preserve" font-family="Impact,Impact" font-weight="bold" font-size="80.0" fill="#FEFFFF" transform="matrix(1.00, 0.00, -0.00, -1.00, 562.7, 253.7)">E</text><text xml:space="preserve" font-family="Impact,Impact" font-weight="bold" font-size="80.0" fill="#FEFFFF" transform="matrix(1.00, 0.00, -0.00, -1.00, 595.9, 253.7)">F</text><text xml:space="preserve" font-family="Impact,Impact" font-weight="bold" font-size="80.0" fill="#FEFFFF" transform="matrix(1.00, 0.00, -0.00, -1.00, 627.7, 253.7)">U</text><text xml:space="preserve" font-family="Impact,Impact" font-weight="bold" font-size="80.0" fill="#FEFFFF" transform="matrix(1.00, 0.00, -0.00, -1.00, 671.4, 253.7)">L</text><text xml:space="preserve" font-family="Impact,Impact" font-weight="bold" font-size="80.0" fill="#FEFFFF" transform="matrix(1.00, 0.00, -0.00, -1.00, 701.9, 253.7)">)</text></g></svg>