<?xml version="1.0" encoding="UTF-8" standalone="no"?><svg xmlns="http://www.w3.org/2000/svg" xmlns:xlink="http://www.w3.org/1999/xlink" clip-rule="evenodd" stroke-miterlimit="10" viewBox="0 0 1024 768"><desc>SVG generated by Keynote</desc><defs></defs><g transform="matrix(1.00, 0.00, -0.00, -1.00, 0.0, 768.0)"><path d="M 0.0 768.0 L 1024.0 768.0 L 1024.0 0.0 L 0.0 0.0 Z M 0.0 768.0 " fill="#000000"></path><text xml:space="preserve" font-family="Impact,Impact" font-weight="bold" font-size="89.2" fill="#FEFFFF" transform="matrix(1.00, 0.00, -0.00, -1.00, 374.8, 638.5)">A</text><text xml:space="preserve" font-family="Impact,Impact" font-weight="bold" font-size="89.2" fill="#FEFFFF" transform="matrix(1.00, 0.00, -0.00, -1.00, 420.1, 638.5)">G</text><text xml:space="preserve" font-family="Impact,Impact" font-weight="bold" font-size="89.2" fill="#FEFFFF" transform="matrix(1.00, 0.00, -0.00, -1.00, 469.3, 638.5)">E</text><text xml:space="preserve" font-family="Impact,Impact" font-weight="bold" font-size="89.2" fill="#FEFFFF" transform="matrix(1.00, 0.00, -0.00, -1.00, 506.4, 638.5)">N</text><text xml:space="preserve" font-family="Impact,Impact" font-weight="bold" font-size="89.2" fill="#FEFFFF" transform="matrix(1.00, 0.00, -0.00, -1.00, 554.6, 638.5)">D</text><text xml:space="preserve" font-family="Impact,Impact" font-weight="bold" font-size="89.2" fill="#FEFFFF" transform="matrix(1.00, 0.00, -0.00, -1.00, 603.9, 638.5)">A</text><text xml:space="preserve" font-family="Impact,Impact" font-weight="bold" font-size="48.0" fill="#FEFFFF" transform="matrix(1.00, 0.00, -0.00, -1.00, 40.9, 533.3)">•</text><text xml:space="preserve" font-family="Impact,Impact" font-weight="bold" font-size="64.0" fill="#FEFFFF" transform="matrix(1.00, 0.00, -0.00, -1.00, 124.7, 526.2)">J</text><text xml:space="preserve" font-family="Impact,Impact" font-weight="bold" font-size="64.0" fill="#FEFFFF" transform="matrix(1.00, 0.00, -0.00, -1.00, 145.9, 526.2)">a</text><text xml:space="preserve" font-family="Impact,Impact" font-weight="bold" font-size="64.0" fill="#FEFFFF" transform="matrix(1.00, 0.00, -0.00, -1.00, 178.2, 526.2)">v</text><text xml:space="preserve" font-family="Impact,Impact" font-weight="bold" font-size="64.0" fill="#FEFFFF" transform="matrix(1.00, 0.00, -0.00, -1.00, 206.1, 526.2)">a</text><text xml:space="preserve" font-family="Impact,Impact" font-weight="bold" font-size="64.0" fill="#FEFFFF" transform="matrix(1.00, 0.00, -0.00, -1.00, 238.4, 526.2)">S</text><text xml:space="preserve" font-family="Impact,Impact" font-weight="bold" font-size="64.0" fill="#FEFFFF" transform="matrix(1.00, 0.00, -0.00, -1.00, 271.5, 526.2)">c</text><text xml:space="preserve" font-family="Impact,Impact" font-weight="bold" font-size="64.0" fill="#FEFFFF" transform="matrix(1.00, 0.00, -0.00, -1.00, 303.1, 526.2)">r</text><text xml:space="preserve" font-family="Impact,Impact" font-weight="bold" font-size="64.0" fill="#FEFFFF" transform="matrix(1.00, 0.00, -0.00, -1.00, 326.0, 526.2)">i</text><text xml:space="preserve" font-family="Impact,Impact" font-weight="bold" font-size="64.0" fill="#FEFFFF" transform="matrix(1.00, 0.00, -0.00, -1.00, 343.5, 526.2)">p</text><text xml:space="preserve" font-family="Impact,Impact" font-weight="bold" font-size="64.0" fill="#FEFFFF" transform="matrix(1.00, 0.00, -0.00, -1.00, 376.8, 526.2)">t</text><text xml:space="preserve" font-family="Impact,Impact" font-weight="bold" font-size="64.0" fill="#FEFFFF" transform="matrix(1.00, 0.00, -0.00, -1.00, 396.2, 526.2)"> </text><text xml:space="preserve" font-family="Impact,Impact" font-weight="bold" font-size="64.0" fill="#FEFFFF" transform="matrix(1.00, 0.00, -0.00, -1.00, 407.5, 526.2)">r</text><text xml:space="preserve" font-family="Impact,Impact" font-weight="bold" font-size="64.0" fill="#FEFFFF" transform="matrix(1.00, 0.00, -0.00, -1.00, 430.4, 526.2)">u</text><text xml:space="preserve" font-family="Impact,Impact" font-weight="bold" font-size="64.0" fill="#FEFFFF" transform="matrix(1.00, 0.00, -0.00, -1.00, 463.9, 526.2)">l</text><text xml:space="preserve" font-family="Impact,Impact" font-weight="bold" font-size="64.0" fill="#FEFFFF" transform="matrix(1.00, 0.00, -0.00, -1.00, 481.4, 526.2)">e</text><text xml:space="preserve" font-family="Impact,Impact" font-weight="bold" font-size="64.0" fill="#FEFFFF" transform="matrix(1.00, 0.00, -0.00, -1.00, 514.2, 526.2)">s</text><text xml:space="preserve" font-family="Impact,Impact" font-weight="bold" font-size="64.0" fill="#FEFFFF" transform="matrix(1.00, 0.00, -0.00, -1.00, 544.3, 526.2)"> </text><text xml:space="preserve" font-family="Impact,Impact" font-weight="bold" font-size="64.0" fill="#FEFFFF" transform="matrix(1.00, 0.00, -0.00, -1.00, 555.6, 526.2)">t</text><text xml:space="preserve" font-family="Impact,Impact" font-weight="bold" font-size="64.0" fill="#FEFFFF" transform="matrix(1.00, 0.00, -0.00, -1.00, 575.0, 526.2)">h</text><text xml:space="preserve" font-family="Impact,Impact" font-weight="bold" font-size="64.0" fill="#FEFFFF" transform="matrix(1.00, 0.00, -0.00, -1.00, 608.6, 526.2)">e</text><text xml:space="preserve" font-family="Impact,Impact" font-weight="bold" font-size="64.0" fill="#FEFFFF" transform="matrix(1.00, 0.00, -0.00, -1.00, 641.3, 526.2)"> </text><text xml:space="preserve" font-family="Impact,Impact" font-weight="bold" font-size="64.0" fill="#FEFFFF" transform="matrix(1.00, 0.00, -0.00, -1.00, 652.6, 526.2)">w</text><text xml:space="preserve" font-family="Impact,Impact" font-weight="bold" font-size="64.0" fill="#FEFFFF" transform="matrix(1.00, 0.00, -0.00, -1.00, 695.5, 526.2)">o</text><text xml:space="preserve" font-family="Impact,Impact" font-weight="bold" font-size="64.0" fill="#FEFFFF" transform="matrix(1.00, 0.00, -0.00, -1.00, 728.2, 526.2)">r</text><text xml:space="preserve" font-family="Impact,Impact" font-weight="bold" font-size="64.0" fill="#FEFFFF" transform="matrix(1.00, 0.00, -0.00, -1.00, 751.1, 526.2)">l</text><text xml:space="preserve" font-family="Impact,Impact" font-weight="bold" font-size="64.0" fill="#FEFFFF" transform="matrix(1.00, 0.00, -0.00, -1.00, 768.6, 526.2)">d</text><text xml:space="preserve" font-family="Impact,Impact" font-weight="bold" font-size="64.0" fill="#FEFFFF" transform="matrix(1.00, 0.00, -0.00, -1.00, 801.9, 526.2)"> </text><text xml:space="preserve" font-family="Impact,Impact" font-weight="bold" font-size="48.0" fill="#FEFFFF" transform="matrix(1.00, 0.00, -0.00, -1.00, 40.9, 454.3)">•</text><text xml:space="preserve" font-family="Impact,Impact" font-weight="bold" font-size="64.0" fill="#FEFFFF" transform="matrix(1.00, 0.00, -0.00, -1.00, 124.7, 447.2)">I</text><text xml:space="preserve" font-family="Impact,Impact" font-weight="bold" font-size="64.0" fill="#FEFFFF" transform="matrix(1.00, 0.00, -0.00, -1.00, 143.2, 447.2)">n</text><text xml:space="preserve" font-family="Impact,Impact" font-weight="bold" font-size="64.0" fill="#FEFFFF" transform="matrix(1.00, 0.00, -0.00, -1.00, 176.6, 447.2)">d</text><text xml:space="preserve" font-family="Impact,Impact" font-weight="bold" font-size="64.0" fill="#FEFFFF" transform="matrix(1.00, 0.00, -0.00, -1.00, 209.9, 447.2)">u</text><text xml:space="preserve" font-family="Impact,Impact" font-weight="bold" font-size="64.0" fill="#FEFFFF" transform="matrix(1.00, 0.00, -0.00, -1.00, 243.3, 447.2)">s</text><text xml:space="preserve" font-family="Impact,Impact" font-weight="bold" font-size="64.0" fill="#FEFFFF" transform="matrix(1.00, 0.00, -0.00, -1.00, 273.4, 447.2)">t</text><text xml:space="preserve" font-family="Impact,Impact" font-weight="bold" font-size="64.0" fill="#FEFFFF" transform="matrix(1.00, 0.00, -0.00, -1.00, 292.9, 447.2)">r</text><text xml:space="preserve" font-family="Impact,Impact" font-weight="bold" font-size="64.0" fill="#FEFFFF" transform="matrix(1.00, 0.00, -0.00, -1.00, 317.0, 447.2)">y</text><text xml:space="preserve" font-family="Impact,Impact" font-weight="bold" font-size="64.0" fill="#FEFFFF" transform="matrix(1.00, 0.00, -0.00, -1.00, 345.7, 447.2)"> </text><text xml:space="preserve" font-family="Impact,Impact" font-weight="bold" font-size="64.0" fill="#FEFFFF" transform="matrix(1.00, 0.00, -0.00, -1.00, 357.0, 447.2)">A</text><text xml:space="preserve" font-family="Impact,Impact" font-weight="bold" font-size="64.0" fill="#FEFFFF" transform="matrix(1.00, 0.00, -0.00, -1.00, 389.5, 447.2)">d</text><text xml:space="preserve" font-family="Impact,Impact" font-weight="bold" font-size="64.0" fill="#FEFFFF" transform="matrix(1.00, 0.00, -0.00, -1.00, 422.7, 447.2)">o</text><text xml:space="preserve" font-family="Impact,Impact" font-weight="bold" font-size="64.0" fill="#FEFFFF" transform="matrix(1.00, 0.00, -0.00, -1.00, 455.4, 447.2)">p</text><text xml:space="preserve" font-family="Impact,Impact" font-weight="bold" font-size="64.0" fill="#FEFFFF" transform="matrix(1.00, 0.00, -0.00, -1.00, 488.6, 447.2)">t</text><text xml:space="preserve" font-family="Impact,Impact" font-weight="bold" font-size="64.0" fill="#FEFFFF" transform="matrix(1.00, 0.00, -0.00, -1.00, 508.1, 447.2)">i</text><text xml:space="preserve" font-family="Impact,Impact" font-weight="bold" font-size="64.0" fill="#FEFFFF" transform="matrix(1.00, 0.00, -0.00, -1.00, 525.6, 447.2)">o</text><text xml:space="preserve" font-family="Impact,Impact" font-weight="bold" font-size="64.0" fill="#FEFFFF" transform="matrix(1.00, 0.00, -0.00, -1.00, 558.4, 447.2)">n</text><text xml:space="preserve" font-family="Impact,Impact" font-weight="bold" font-size="64.0" fill="#FEFFFF" transform="matrix(1.00, 0.00, -0.00, -1.00, 591.8, 447.2)"> </text><text xml:space="preserve" font-family="Impact,Impact" font-weight="bold" font-size="48.0" fill="#FEFFFF" transform="matrix(1.00, 0.00, -0.00, -1.00, 40.9, 375.3)">•</text><text xml:space="preserve" font-family="Impact,Impact" font-weight="bold" font-size="64.0" fill="#FEFFFF" transform="matrix(1.00, 0.00, -0.00, -1.00, 124.7, 368.2)">W</text><text xml:space="preserve" font-family="Impact,Impact" font-weight="bold" font-size="64.0" fill="#FEFFFF" transform="matrix(1.00, 0.00, -0.00, -1.00, 176.9, 368.2)">h</text><text xml:space="preserve" font-family="Impact,Impact" font-weight="bold" font-size="64.0" fill="#FEFFFF" transform="matrix(1.00, 0.00, -0.00, -1.00, 210.4, 368.2)">a</text><text xml:space="preserve" font-family="Impact,Impact" font-weight="bold" font-size="64.0" fill="#FEFFFF" transform="matrix(1.00, 0.00, -0.00, -1.00, 242.7, 368.2)">t</text><text xml:space="preserve" font-family="Impact,Impact" font-weight="bold" font-size="64.0" fill="#FEFFFF" transform="matrix(1.00, 0.00, -0.00, -1.00, 262.1, 368.2)"> </text><text xml:space="preserve" font-family="Impact,Impact" font-weight="bold" font-size="64.0" fill="#FEFFFF" transform="matrix(1.00, 0.00, -0.00, -1.00, 273.4, 368.2)">m</text><text xml:space="preserve" font-family="Impact,Impact" font-weight="bold" font-size="64.0" fill="#FEFFFF" transform="matrix(1.00, 0.00, -0.00, -1.00, 322.8, 368.2)">a</text><text xml:space="preserve" font-family="Impact,Impact" font-weight="bold" font-size="64.0" fill="#FEFFFF" transform="matrix(1.00, 0.00, -0.00, -1.00, 355.0, 368.2)">k</text><text xml:space="preserve" font-family="Impact,Impact" font-weight="bold" font-size="64.0" fill="#FEFFFF" transform="matrix(1.00, 0.00, -0.00, -1.00, 385.6, 368.2)">e</text><text xml:space="preserve" font-family="Impact,Impact" font-weight="bold" font-size="64.0" fill="#FEFFFF" transform="matrix(1.00, 0.00, -0.00, -1.00, 418.4, 368.2)">s</text><text xml:space="preserve" font-family="Impact,Impact" font-weight="bold" font-size="64.0" fill="#FEFFFF" transform="matrix(1.00, 0.00, -0.00, -1.00, 448.5, 368.2)"> </text><text xml:space="preserve" font-family="Impact,Impact" font-weight="bold" font-size="64.0" fill="#FEFFFF" transform="matrix(1.00, 0.00, -0.00, -1.00, 459.8, 368.2)">N</text><text xml:space="preserve" font-family="Impact,Impact" font-weight="bold" font-size="64.0" fill="#FEFFFF" transform="matrix(1.00, 0.00, -0.00, -1.00, 494.4, 368.2)">o</text><text xml:space="preserve" font-family="Impact,Impact" font-weight="bold" font-size="64.0" fill="#FEFFFF" transform="matrix(1.00, 0.00, -0.00, -1.00, 527.1, 368.2)">d</text><text xml:space="preserve" font-family="Impact,Impact" font-weight="bold" font-size="64.0" fill="#FEFFFF" transform="matrix(1.00, 0.00, -0.00, -1.00, 560.3, 368.2)">e</text><text xml:space="preserve" font-family="Impact,Impact" font-weight="bold" font-size="64.0" fill="#FEFFFF" transform="matrix(1.00, 0.00, -0.00, -1.00, 593.1, 368.2)"> </text><text xml:space="preserve" font-family="Impact,Impact" font-weight="bold" font-size="64.0" fill="#FEFFFF" transform="matrix(1.00, 0.00, -0.00, -1.00, 604.4, 368.2)">g</text><text xml:space="preserve" font-family="Impact,Impact" font-weight="bold" font-size="64.0" fill="#FEFFFF" transform="matrix(1.00, 0.00, -0.00, -1.00, 637.5, 368.2)">r</text><text xml:space="preserve" font-family="Impact,Impact" font-weight="bold" font-size="64.0" fill="#FEFFFF" transform="matrix(1.00, 0.00, -0.00, -1.00, 660.4, 368.2)">e</text><text xml:space="preserve" font-family="Impact,Impact" font-weight="bold" font-size="64.0" fill="#FEFFFF" transform="matrix(1.00, 0.00, -0.00, -1.00, 693.2, 368.2)">a</text><text xml:space="preserve" font-family="Impact,Impact" font-weight="bold" font-size="64.0" fill="#FEFFFF" transform="matrix(1.00, 0.00, -0.00, -1.00, 725.4, 368.2)">t</text><text xml:space="preserve" font-family="Impact,Impact" font-weight="bold" font-size="64.0" fill="#FEFFFF" transform="matrix(1.00, 0.00, -0.00, -1.00, 744.9, 368.2)">?</text><text xml:space="preserve" font-family="Impact,Impact" font-weight="bold" font-size="64.0" fill="#FEFFFF" transform="matrix(1.00, 0.00, -0.00, -1.00, 778.5, 368.2)"> </text><text xml:space="preserve" font-family="Impact,Impact" font-weight="bold" font-size="48.0" fill="#FEFFFF" transform="matrix(1.00, 0.00, -0.00, -1.00, 40.9, 296.3)">•</text><text xml:space="preserve" font-family="Impact,Impact" font-weight="bold" font-size="64.0" fill="#FEFFFF" transform="matrix(1.00, 0.00, -0.00, -1.00, 124.7, 289.2)">N</text><text xml:space="preserve" font-family="Impact,Impact" font-weight="bold" font-size="64.0" fill="#FEFFFF" transform="matrix(1.00, 0.00, -0.00, -1.00, 159.4, 289.2)">o</text><text xml:space="preserve" font-family="Impact,Impact" font-weight="bold" font-size="64.0" fill="#FEFFFF" transform="matrix(1.00, 0.00, -0.00, -1.00, 192.1, 289.2)">d</text><text xml:space="preserve" font-family="Impact,Impact" font-weight="bold" font-size="64.0" fill="#FEFFFF" transform="matrix(1.00, 0.00, -0.00, -1.00, 225.3, 289.2)">e</text><text xml:space="preserve" font-family="Impact,Impact" font-weight="bold" font-size="64.0" fill="#FEFFFF" transform="matrix(1.00, 0.00, -0.00, -1.00, 258.1, 289.2)"> </text><text xml:space="preserve" font-family="Impact,Impact" font-weight="bold" font-size="64.0" fill="#FEFFFF" transform="matrix(1.00, 0.00, -0.00, -1.00, 269.4, 289.2)">u</text><text xml:space="preserve" font-family="Impact,Impact" font-weight="bold" font-size="64.0" fill="#FEFFFF" transform="matrix(1.00, 0.00, -0.00, -1.00, 302.9, 289.2)">s</text><text xml:space="preserve" font-family="Impact,Impact" font-weight="bold" font-size="64.0" fill="#FEFFFF" transform="matrix(1.00, 0.00, -0.00, -1.00, 333.0, 289.2)">e</text><text xml:space="preserve" font-family="Impact,Impact" font-weight="bold" font-size="64.0" fill="#FEFFFF" transform="matrix(1.00, 0.00, -0.00, -1.00, 365.7, 289.2)"> </text><text xml:space="preserve" font-family="Impact,Impact" font-weight="bold" font-size="64.0" fill="#FEFFFF" transform="matrix(1.00, 0.00, -0.00, -1.00, 377.0, 289.2)">c</text><text xml:space="preserve" font-family="Impact,Impact" font-weight="bold" font-size="64.0" fill="#FEFFFF" transform="matrix(1.00, 0.00, -0.00, -1.00, 408.6, 289.2)">a</text><text xml:space="preserve" font-family="Impact,Impact" font-weight="bold" font-size="64.0" fill="#FEFFFF" transform="matrix(1.00, 0.00, -0.00, -1.00, 440.9, 289.2)">s</text><text xml:space="preserve" font-family="Impact,Impact" font-weight="bold" font-size="64.0" fill="#FEFFFF" transform="matrix(1.00, 0.00, -0.00, -1.00, 471.0, 289.2)">e</text><text xml:space="preserve" font-family="Impact,Impact" font-weight="bold" font-size="64.0" fill="#FEFFFF" transform="matrix(1.00, 0.00, -0.00, -1.00, 503.7, 289.2)">s</text><text xml:space="preserve" font-family="Impact,Impact" font-weight="bold" font-size="64.0" fill="#FEFFFF" transform="matrix(1.00, 0.00, -0.00, -1.00, 533.8, 289.2)"> </text><text xml:space="preserve" font-family="Impact,Impact" font-weight="bold" font-size="48.0" fill="#FEFFFF" transform="matrix(1.00, 0.00, -0.00, -1.00, 40.9, 217.3)">•</text><text xml:space="preserve" font-family="Impact,Impact" font-weight="bold" font-size="64.0" fill="#FEFFFF" transform="matrix(1.00, 0.00, -0.00, -1.00, 124.7, 210.2)">C</text><text xml:space="preserve" font-family="Impact,Impact" font-weight="bold" font-size="64.0" fill="#FEFFFF" transform="matrix(1.00, 0.00, -0.00, -1.00, 160.2, 210.2)">o</text><text xml:space="preserve" font-family="Impact,Impact" font-weight="bold" font-size="64.0" fill="#FEFFFF" transform="matrix(1.00, 0.00, -0.00, -1.00, 192.9, 210.2)">m</text><text xml:space="preserve" font-family="Impact,Impact" font-weight="bold" font-size="64.0" fill="#FEFFFF" transform="matrix(1.00, 0.00, -0.00, -1.00, 242.2, 210.2)">m</text><text xml:space="preserve" font-family="Impact,Impact" font-weight="bold" font-size="64.0" fill="#FEFFFF" transform="matrix(1.00, 0.00, -0.00, -1.00, 291.6, 210.2)">u</text><text xml:space="preserve" font-family="Impact,Impact" font-weight="bold" font-size="64.0" fill="#FEFFFF" transform="matrix(1.00, 0.00, -0.00, -1.00, 325.0, 210.2)">n</text><text xml:space="preserve" font-family="Impact,Impact" font-weight="bold" font-size="64.0" fill="#FEFFFF" transform="matrix(1.00, 0.00, -0.00, -1.00, 358.5, 210.2)">i</text><text xml:space="preserve" font-family="Impact,Impact" font-weight="bold" font-size="64.0" fill="#FEFFFF" transform="matrix(1.00, 0.00, -0.00, -1.00, 376.0, 210.2)">t</text><text xml:space="preserve" font-family="Impact,Impact" font-weight="bold" font-size="64.0" fill="#FEFFFF" transform="matrix(1.00, 0.00, -0.00, -1.00, 396.8, 210.2)">y</text><text xml:space="preserve" font-family="Impact,Impact" font-weight="bold" font-size="64.0" fill="#FEFFFF" transform="matrix(1.00, 0.00, -0.00, -1.00, 425.5, 210.2)"> </text><text xml:space="preserve" font-family="Impact,Impact" font-weight="bold" font-size="48.0" fill="#FEFFFF" transform="matrix(1.00, 0.00, -0.00, -1.00, 40.9, 138.3)">•</text><text xml:space="preserve" font-family="Impact,Impact" font-weight="bold" font-size="64.0" fill="#FEFFFF" transform="matrix(1.00, 0.00, -0.00, -1.00, 124.7, 131.2)">Q</text><text xml:space="preserve" font-family="Impact,Impact" font-weight="bold" font-size="64.0" fill="#FEFFFF" transform="matrix(1.00, 0.00, -0.00, -1.00, 159.7, 131.2)">&amp;</text><text xml:space="preserve" font-family="Impact,Impact" font-weight="bold" font-size="64.0" fill="#FEFFFF" transform="matrix(1.00, 0.00, -0.00, -1.00, 196.6, 131.2)">A</text></g></svg>