<?xml version="1.0" encoding="UTF-8" standalone="no"?><svg xmlns="http://www.w3.org/2000/svg" xmlns:xlink="http://www.w3.org/1999/xlink" clip-rule="evenodd" stroke-miterlimit="10" viewBox="0 0 1024 768"><desc>SVG generated by Keynote</desc><defs></defs><g transform="matrix(1.00, 0.00, -0.00, -1.00, 0.0, 768.0)"><path d="M 0.0 768.0 L 1024.0 768.0 L 1024.0 0.0 L 0.0 0.0 Z M 0.0 768.0 " fill="#000000"></path><text xml:space="preserve" font-family="Impact,Impact" font-weight="bold" font-size="59.2" fill="#FEFFFF" transform="matrix(1.00, 0.00, -0.00, -1.00, 245.2, 639.0)">B</text><text xml:space="preserve" font-family="Impact,Impact" font-weight="bold" font-size="59.2" fill="#FEFFFF" transform="matrix(1.00, 0.00, -0.00, -1.00, 277.9, 639.0)">U</text><text xml:space="preserve" font-family="Impact,Impact" font-weight="bold" font-size="59.2" fill="#FEFFFF" transform="matrix(1.00, 0.00, -0.00, -1.00, 310.3, 639.0)">I</text><text xml:space="preserve" font-family="Impact,Impact" font-weight="bold" font-size="59.2" fill="#FEFFFF" transform="matrix(1.00, 0.00, -0.00, -1.00, 327.4, 639.0)">L</text><text xml:space="preserve" font-family="Impact,Impact" font-weight="bold" font-size="59.2" fill="#FEFFFF" transform="matrix(1.00, 0.00, -0.00, -1.00, 345.6, 639.0)">T</text><text xml:space="preserve" font-family="Impact,Impact" font-weight="bold" font-size="59.2" fill="#FEFFFF" transform="matrix(1.00, 0.00, -0.00, -1.00, 372.9, 639.0)"> </text><text xml:space="preserve" font-family="Impact,Impact" font-weight="bold" font-size="59.2" fill="#FEFFFF" transform="matrix(1.00, 0.00, -0.00, -1.00, 383.4, 639.0)">F</text><text xml:space="preserve" font-family="Impact,Impact" font-weight="bold" font-size="59.2" fill="#FEFFFF" transform="matrix(1.00, 0.00, -0.00, -1.00, 406.9, 639.0)">O</text><text xml:space="preserve" font-family="Impact,Impact" font-weight="bold" font-size="59.2" fill="#FEFFFF" transform="matrix(1.00, 0.00, -0.00, -1.00, 439.3, 639.0)">R</text><text xml:space="preserve" font-family="Impact,Impact" font-weight="bold" font-size="59.2" fill="#FEFFFF" transform="matrix(1.00, 0.00, -0.00, -1.00, 471.1, 639.0)"> </text><text xml:space="preserve" font-family="Impact,Impact" font-weight="bold" font-size="81.4" fill="#FEFFFF" transform="matrix(1.00, 0.00, -0.00, -1.00, 481.5, 639.0)">R</text><text xml:space="preserve" font-family="Impact,Impact" font-weight="bold" font-size="81.4" fill="#FEFFFF" transform="matrix(1.00, 0.00, -0.00, -1.00, 525.3, 639.0)">E</text><text xml:space="preserve" font-family="Impact,Impact" font-weight="bold" font-size="81.4" fill="#FEFFFF" transform="matrix(1.00, 0.00, -0.00, -1.00, 559.1, 639.0)">A</text><text xml:space="preserve" font-family="Impact,Impact" font-weight="bold" font-size="81.4" fill="#FEFFFF" transform="matrix(1.00, 0.00, -0.00, -1.00, 600.4, 639.0)">L</text><text xml:space="preserve" font-family="Impact,Impact" font-weight="bold" font-size="81.4" fill="#FEFFFF" transform="matrix(1.00, 0.00, -0.00, -1.00, 625.6, 639.0)">T</text><text xml:space="preserve" font-family="Impact,Impact" font-weight="bold" font-size="81.4" fill="#FEFFFF" transform="matrix(1.00, 0.00, -0.00, -1.00, 663.1, 639.0)">I</text><text xml:space="preserve" font-family="Impact,Impact" font-weight="bold" font-size="81.4" fill="#FEFFFF" transform="matrix(1.00, 0.00, -0.00, -1.00, 686.6, 639.0)">M</text><text xml:space="preserve" font-family="Impact,Impact" font-weight="bold" font-size="81.4" fill="#FEFFFF" transform="matrix(1.00, 0.00, -0.00, -1.00, 744.9, 639.0)">E</text><text xml:space="preserve" font-family="Impact,Impact" font-weight="bold" font-size="59.2" fill="#FEFFFF" transform="matrix(1.00, 0.00, -0.00, -1.00, 778.8, 639.0)"> </text><text xml:space="preserve" font-family="Impact,Impact" font-weight="bold" font-size="59.2" fill="#FEFFFF" transform="matrix(1.00, 0.00, -0.00, -1.00, 188.8, 562.4)">C</text><text xml:space="preserve" font-family="Impact,Impact" font-weight="bold" font-size="59.2" fill="#FEFFFF" transform="matrix(1.00, 0.00, -0.00, -1.00, 221.5, 562.4)">O</text><text xml:space="preserve" font-family="Impact,Impact" font-weight="bold" font-size="59.2" fill="#FEFFFF" transform="matrix(1.00, 0.00, -0.00, -1.00, 253.9, 562.4)">N</text><text xml:space="preserve" font-family="Impact,Impact" font-weight="bold" font-size="59.2" fill="#FEFFFF" transform="matrix(1.00, 0.00, -0.00, -1.00, 286.0, 562.4)">C</text><text xml:space="preserve" font-family="Impact,Impact" font-weight="bold" font-size="59.2" fill="#FEFFFF" transform="matrix(1.00, 0.00, -0.00, -1.00, 318.7, 562.4)">U</text><text xml:space="preserve" font-family="Impact,Impact" font-weight="bold" font-size="59.2" fill="#FEFFFF" transform="matrix(1.00, 0.00, -0.00, -1.00, 351.1, 562.4)">R</text><text xml:space="preserve" font-family="Impact,Impact" font-weight="bold" font-size="59.2" fill="#FEFFFF" transform="matrix(1.00, 0.00, -0.00, -1.00, 382.9, 562.4)">R</text><text xml:space="preserve" font-family="Impact,Impact" font-weight="bold" font-size="59.2" fill="#FEFFFF" transform="matrix(1.00, 0.00, -0.00, -1.00, 414.8, 562.4)">E</text><text xml:space="preserve" font-family="Impact,Impact" font-weight="bold" font-size="59.2" fill="#FEFFFF" transform="matrix(1.00, 0.00, -0.00, -1.00, 439.4, 562.4)">N</text><text xml:space="preserve" font-family="Impact,Impact" font-weight="bold" font-size="59.2" fill="#FEFFFF" transform="matrix(1.00, 0.00, -0.00, -1.00, 471.4, 562.4)">T</text><text xml:space="preserve" font-family="Impact,Impact" font-weight="bold" font-size="59.2" fill="#FEFFFF" transform="matrix(1.00, 0.00, -0.00, -1.00, 498.7, 562.4)"> </text><text xml:space="preserve" font-family="Impact,Impact" font-weight="bold" font-size="59.2" fill="#FEFFFF" transform="matrix(1.00, 0.00, -0.00, -1.00, 509.2, 562.4)">C</text><text xml:space="preserve" font-family="Impact,Impact" font-weight="bold" font-size="59.2" fill="#FEFFFF" transform="matrix(1.00, 0.00, -0.00, -1.00, 541.9, 562.4)">O</text><text xml:space="preserve" font-family="Impact,Impact" font-weight="bold" font-size="59.2" fill="#FEFFFF" transform="matrix(1.00, 0.00, -0.00, -1.00, 574.3, 562.4)">N</text><text xml:space="preserve" font-family="Impact,Impact" font-weight="bold" font-size="59.2" fill="#FEFFFF" transform="matrix(1.00, 0.00, -0.00, -1.00, 606.4, 562.4)">N</text><text xml:space="preserve" font-family="Impact,Impact" font-weight="bold" font-size="59.2" fill="#FEFFFF" transform="matrix(1.00, 0.00, -0.00, -1.00, 638.4, 562.4)">E</text><text xml:space="preserve" font-family="Impact,Impact" font-weight="bold" font-size="59.2" fill="#FEFFFF" transform="matrix(1.00, 0.00, -0.00, -1.00, 663.0, 562.4)">C</text><text xml:space="preserve" font-family="Impact,Impact" font-weight="bold" font-size="59.2" fill="#FEFFFF" transform="matrix(1.00, 0.00, -0.00, -1.00, 695.7, 562.4)">T</text><text xml:space="preserve" font-family="Impact,Impact" font-weight="bold" font-size="59.2" fill="#FEFFFF" transform="matrix(1.00, 0.00, -0.00, -1.00, 723.0, 562.4)">I</text><text xml:space="preserve" font-family="Impact,Impact" font-weight="bold" font-size="59.2" fill="#FEFFFF" transform="matrix(1.00, 0.00, -0.00, -1.00, 740.1, 562.4)">O</text><text xml:space="preserve" font-family="Impact,Impact" font-weight="bold" font-size="59.2" fill="#FEFFFF" transform="matrix(1.00, 0.00, -0.00, -1.00, 772.4, 562.4)">N</text><text xml:space="preserve" font-family="Impact,Impact" font-weight="bold" font-size="59.2" fill="#FEFFFF" transform="matrix(1.00, 0.00, -0.00, -1.00, 804.5, 562.4)">S</text><text xml:space="preserve" font-family="Impact,Impact" font-weight="bold" font-size="59.2" fill="#FEFFFF" transform="matrix(1.00, 0.00, -0.00, -1.00, 835.1, 562.4)"> </text><text xml:space="preserve" font-family="Impact,Impact" font-weight="bold" font-size="59.2" fill="#FEFFFF" transform="matrix(1.00, 0.00, -0.00, -1.00, 287.7, 418.4)">P</text><text xml:space="preserve" font-family="Impact,Impact" font-weight="bold" font-size="59.2" fill="#FEFFFF" transform="matrix(1.00, 0.00, -0.00, -1.00, 317.4, 418.4)">H</text><text xml:space="preserve" font-family="Impact,Impact" font-weight="bold" font-size="59.2" fill="#FEFFFF" transform="matrix(1.00, 0.00, -0.00, -1.00, 350.3, 418.4)">P</text><text xml:space="preserve" font-family="Impact,Impact" font-weight="bold" font-size="59.2" fill="#FEFFFF" transform="matrix(1.00, 0.00, -0.00, -1.00, 372.5, 418.4)">,</text><text xml:space="preserve" font-family="Impact,Impact" font-weight="bold" font-size="59.2" fill="#FEFFFF" transform="matrix(1.00, 0.00, -0.00, -1.00, 382.4, 418.4)"> </text><text xml:space="preserve" font-family="Impact,Impact" font-weight="bold" font-size="59.2" fill="#FEFFFF" transform="matrix(1.00, 0.00, -0.00, -1.00, 392.9, 418.4)">R</text><text xml:space="preserve" font-family="Impact,Impact" font-weight="bold" font-size="59.2" fill="#FEFFFF" transform="matrix(1.00, 0.00, -0.00, -1.00, 424.7, 418.4)">A</text><text xml:space="preserve" font-family="Impact,Impact" font-weight="bold" font-size="59.2" fill="#FEFFFF" transform="matrix(1.00, 0.00, -0.00, -1.00, 454.8, 418.4)">I</text><text xml:space="preserve" font-family="Impact,Impact" font-weight="bold" font-size="59.2" fill="#FEFFFF" transform="matrix(1.00, 0.00, -0.00, -1.00, 471.8, 418.4)">L</text><text xml:space="preserve" font-family="Impact,Impact" font-weight="bold" font-size="59.2" fill="#FEFFFF" transform="matrix(1.00, 0.00, -0.00, -1.00, 494.0, 418.4)">S</text><text xml:space="preserve" font-family="Impact,Impact" font-weight="bold" font-size="59.2" fill="#FEFFFF" transform="matrix(1.00, 0.00, -0.00, -1.00, 524.6, 418.4)">,</text><text xml:space="preserve" font-family="Impact,Impact" font-weight="bold" font-size="59.2" fill="#FEFFFF" transform="matrix(1.00, 0.00, -0.00, -1.00, 534.5, 418.4)"> </text><text xml:space="preserve" font-family="Impact,Impact" font-weight="bold" font-size="59.2" fill="#FEFFFF" transform="matrix(1.00, 0.00, -0.00, -1.00, 545.0, 418.4)">D</text><text xml:space="preserve" font-family="Impact,Impact" font-weight="bold" font-size="59.2" fill="#FEFFFF" transform="matrix(1.00, 0.00, -0.00, -1.00, 577.7, 418.4)">J</text><text xml:space="preserve" font-family="Impact,Impact" font-weight="bold" font-size="59.2" fill="#FEFFFF" transform="matrix(1.00, 0.00, -0.00, -1.00, 597.3, 418.4)">A</text><text xml:space="preserve" font-family="Impact,Impact" font-weight="bold" font-size="59.2" fill="#FEFFFF" transform="matrix(1.00, 0.00, -0.00, -1.00, 627.3, 418.4)">N</text><text xml:space="preserve" font-family="Impact,Impact" font-weight="bold" font-size="59.2" fill="#FEFFFF" transform="matrix(1.00, 0.00, -0.00, -1.00, 659.4, 418.4)">G</text><text xml:space="preserve" font-family="Impact,Impact" font-weight="bold" font-size="59.2" fill="#FEFFFF" transform="matrix(1.00, 0.00, -0.00, -1.00, 692.0, 418.4)">O</text><text xml:space="preserve" font-family="Impact,Impact" font-weight="bold" font-size="59.2" fill="#FEFFFF" transform="matrix(1.00, 0.00, -0.00, -1.00, 724.4, 418.4)">:</text><text xml:space="preserve" font-family="Impact,Impact" font-weight="bold" font-size="59.2" fill="#FEFFFF" transform="matrix(1.00, 0.00, -0.00, -1.00, 736.4, 418.4)"> </text><text xml:space="preserve" font-family="Impact,Impact" font-weight="bold" font-size="59.2" fill="#FEFFFF" transform="matrix(1.00, 0.00, -0.00, -1.00, 236.3, 346.4)">T</text><text xml:space="preserve" font-family="Impact,Impact" font-weight="bold" font-size="59.2" fill="#FEFFFF" transform="matrix(1.00, 0.00, -0.00, -1.00, 263.6, 346.4)">h</text><text xml:space="preserve" font-family="Impact,Impact" font-weight="bold" font-size="59.2" fill="#FEFFFF" transform="matrix(1.00, 0.00, -0.00, -1.00, 294.6, 346.4)">e</text><text xml:space="preserve" font-family="Impact,Impact" font-weight="bold" font-size="59.2" fill="#FEFFFF" transform="matrix(1.00, 0.00, -0.00, -1.00, 324.9, 346.4)"> </text><text xml:space="preserve" font-family="Impact,Impact" font-weight="bold" font-size="59.2" fill="#FEFFFF" transform="matrix(1.00, 0.00, -0.00, -1.00, 335.4, 346.4)">w</text><text xml:space="preserve" font-family="Impact,Impact" font-weight="bold" font-size="59.2" fill="#FEFFFF" transform="matrix(1.00, 0.00, -0.00, -1.00, 375.0, 346.4)">o</text><text xml:space="preserve" font-family="Impact,Impact" font-weight="bold" font-size="59.2" fill="#FEFFFF" transform="matrix(1.00, 0.00, -0.00, -1.00, 405.3, 346.4)">r</text><text xml:space="preserve" font-family="Impact,Impact" font-weight="bold" font-size="59.2" fill="#FEFFFF" transform="matrix(1.00, 0.00, -0.00, -1.00, 426.5, 346.4)">k</text><text xml:space="preserve" font-family="Impact,Impact" font-weight="bold" font-size="59.2" fill="#FEFFFF" transform="matrix(1.00, 0.00, -0.00, -1.00, 454.8, 346.4)">e</text><text xml:space="preserve" font-family="Impact,Impact" font-weight="bold" font-size="59.2" fill="#FEFFFF" transform="matrix(1.00, 0.00, -0.00, -1.00, 485.0, 346.4)">r</text><text xml:space="preserve" font-family="Impact,Impact" font-weight="bold" font-size="59.2" fill="#FEFFFF" transform="matrix(1.00, 0.00, -0.00, -1.00, 506.2, 346.4)"> </text><text xml:space="preserve" font-family="Impact,Impact" font-weight="bold" font-size="59.2" fill="#FEFFFF" transform="matrix(1.00, 0.00, -0.00, -1.00, 516.7, 346.4)">p</text><text xml:space="preserve" font-family="Impact,Impact" font-weight="bold" font-size="59.2" fill="#FEFFFF" transform="matrix(1.00, 0.00, -0.00, -1.00, 547.4, 346.4)">o</text><text xml:space="preserve" font-family="Impact,Impact" font-weight="bold" font-size="59.2" fill="#FEFFFF" transform="matrix(1.00, 0.00, -0.00, -1.00, 577.7, 346.4)">o</text><text xml:space="preserve" font-family="Impact,Impact" font-weight="bold" font-size="59.2" fill="#FEFFFF" transform="matrix(1.00, 0.00, -0.00, -1.00, 608.0, 346.4)">l</text><text xml:space="preserve" font-family="Impact,Impact" font-weight="bold" font-size="59.2" fill="#FEFFFF" transform="matrix(1.00, 0.00, -0.00, -1.00, 624.2, 346.4)"> </text><text xml:space="preserve" font-family="Impact,Impact" font-weight="bold" font-size="59.2" fill="#FEFFFF" transform="matrix(1.00, 0.00, -0.00, -1.00, 634.6, 346.4)">m</text><text xml:space="preserve" font-family="Impact,Impact" font-weight="bold" font-size="59.2" fill="#FEFFFF" transform="matrix(1.00, 0.00, -0.00, -1.00, 680.3, 346.4)">o</text><text xml:space="preserve" font-family="Impact,Impact" font-weight="bold" font-size="59.2" fill="#FEFFFF" transform="matrix(1.00, 0.00, -0.00, -1.00, 710.5, 346.4)">d</text><text xml:space="preserve" font-family="Impact,Impact" font-weight="bold" font-size="59.2" fill="#FEFFFF" transform="matrix(1.00, 0.00, -0.00, -1.00, 741.3, 346.4)">e</text><text xml:space="preserve" font-family="Impact,Impact" font-weight="bold" font-size="59.2" fill="#FEFFFF" transform="matrix(1.00, 0.00, -0.00, -1.00, 771.5, 346.4)">l</text><text xml:space="preserve" font-family="Impact,Impact" font-weight="bold" font-size="59.2" fill="#FEFFFF" transform="matrix(1.00, 0.00, -0.00, -1.00, 787.8, 346.4)"> </text><text xml:space="preserve" font-family="Impact,Impact" font-weight="bold" font-size="59.2" fill="#FEFFFF" transform="matrix(1.00, 0.00, -0.00, -1.00, 444.3, 202.4)">N</text><text xml:space="preserve" font-family="Impact,Impact" font-weight="bold" font-size="59.2" fill="#FEFFFF" transform="matrix(1.00, 0.00, -0.00, -1.00, 476.4, 202.4)">o</text><text xml:space="preserve" font-family="Impact,Impact" font-weight="bold" font-size="59.2" fill="#FEFFFF" transform="matrix(1.00, 0.00, -0.00, -1.00, 506.7, 202.4)">d</text><text xml:space="preserve" font-family="Impact,Impact" font-weight="bold" font-size="59.2" fill="#FEFFFF" transform="matrix(1.00, 0.00, -0.00, -1.00, 537.4, 202.4)">e</text><text xml:space="preserve" font-family="Impact,Impact" font-weight="bold" font-size="59.2" fill="#FEFFFF" transform="matrix(1.00, 0.00, -0.00, -1.00, 567.7, 202.4)">:</text><text xml:space="preserve" font-family="Impact,Impact" font-weight="bold" font-size="59.2" fill="#FEFFFF" transform="matrix(1.00, 0.00, -0.00, -1.00, 579.7, 202.4)"> </text><text xml:space="preserve" font-family="Impact,Impact" font-weight="bold" font-size="59.2" fill="#FEFFFF" transform="matrix(1.00, 0.00, -0.00, -1.00, 178.7, 130.4)">1</text><text xml:space="preserve" font-family="Impact,Impact" font-weight="bold" font-size="59.2" fill="#FEFFFF" transform="matrix(1.00, 0.00, -0.00, -1.00, 201.3, 130.4)"> </text><text xml:space="preserve" font-family="Impact,Impact" font-weight="bold" font-size="59.2" fill="#FEFFFF" transform="matrix(1.00, 0.00, -0.00, -1.00, 211.7, 130.4)">p</text><text xml:space="preserve" font-family="Impact,Impact" font-weight="bold" font-size="59.2" fill="#FEFFFF" transform="matrix(1.00, 0.00, -0.00, -1.00, 242.4, 130.4)">r</text><text xml:space="preserve" font-family="Impact,Impact" font-weight="bold" font-size="59.2" fill="#FEFFFF" transform="matrix(1.00, 0.00, -0.00, -1.00, 263.6, 130.4)">o</text><text xml:space="preserve" font-family="Impact,Impact" font-weight="bold" font-size="59.2" fill="#FEFFFF" transform="matrix(1.00, 0.00, -0.00, -1.00, 293.9, 130.4)">c</text><text xml:space="preserve" font-family="Impact,Impact" font-weight="bold" font-size="59.2" fill="#FEFFFF" transform="matrix(1.00, 0.00, -0.00, -1.00, 323.1, 130.4)">e</text><text xml:space="preserve" font-family="Impact,Impact" font-weight="bold" font-size="59.2" fill="#FEFFFF" transform="matrix(1.00, 0.00, -0.00, -1.00, 353.4, 130.4)">s</text><text xml:space="preserve" font-family="Impact,Impact" font-weight="bold" font-size="59.2" fill="#FEFFFF" transform="matrix(1.00, 0.00, -0.00, -1.00, 381.3, 130.4)">s</text><text xml:space="preserve" font-family="Impact,Impact" font-weight="bold" font-size="59.2" fill="#FEFFFF" transform="matrix(1.00, 0.00, -0.00, -1.00, 409.1, 130.4)">,</text><text xml:space="preserve" font-family="Impact,Impact" font-weight="bold" font-size="59.2" fill="#FEFFFF" transform="matrix(1.00, 0.00, -0.00, -1.00, 419.1, 130.4)"> </text><text xml:space="preserve" font-family="Impact,Impact" font-weight="bold" font-size="59.2" fill="#FEFFFF" transform="matrix(1.00, 0.00, -0.00, -1.00, 429.5, 130.4)">m</text><text xml:space="preserve" font-family="Impact,Impact" font-weight="bold" font-size="59.2" fill="#FEFFFF" transform="matrix(1.00, 0.00, -0.00, -1.00, 475.2, 130.4)">a</text><text xml:space="preserve" font-family="Impact,Impact" font-weight="bold" font-size="59.2" fill="#FEFFFF" transform="matrix(1.00, 0.00, -0.00, -1.00, 505.0, 130.4)">n</text><text xml:space="preserve" font-family="Impact,Impact" font-weight="bold" font-size="59.2" fill="#FEFFFF" transform="matrix(1.00, 0.00, -0.00, -1.00, 535.9, 130.4)">y</text><text xml:space="preserve" font-family="Impact,Impact" font-weight="bold" font-size="59.2" fill="#FEFFFF" transform="matrix(1.00, 0.00, -0.00, -1.00, 562.5, 130.4)"> </text><text xml:space="preserve" font-family="Impact,Impact" font-weight="bold" font-size="59.2" fill="#FEFFFF" transform="matrix(1.00, 0.00, -0.00, -1.00, 572.9, 130.4)">c</text><text xml:space="preserve" font-family="Impact,Impact" font-weight="bold" font-size="59.2" fill="#FEFFFF" transform="matrix(1.00, 0.00, -0.00, -1.00, 602.2, 130.4)">o</text><text xml:space="preserve" font-family="Impact,Impact" font-weight="bold" font-size="59.2" fill="#FEFFFF" transform="matrix(1.00, 0.00, -0.00, -1.00, 632.5, 130.4)">n</text><text xml:space="preserve" font-family="Impact,Impact" font-weight="bold" font-size="59.2" fill="#FEFFFF" transform="matrix(1.00, 0.00, -0.00, -1.00, 663.4, 130.4)">c</text><text xml:space="preserve" font-family="Impact,Impact" font-weight="bold" font-size="59.2" fill="#FEFFFF" transform="matrix(1.00, 0.00, -0.00, -1.00, 692.7, 130.4)">u</text><text xml:space="preserve" font-family="Impact,Impact" font-weight="bold" font-size="59.2" fill="#FEFFFF" transform="matrix(1.00, 0.00, -0.00, -1.00, 723.6, 130.4)">r</text><text xml:space="preserve" font-family="Impact,Impact" font-weight="bold" font-size="59.2" fill="#FEFFFF" transform="matrix(1.00, 0.00, -0.00, -1.00, 744.8, 130.4)">r</text><text xml:space="preserve" font-family="Impact,Impact" font-weight="bold" font-size="59.2" fill="#FEFFFF" transform="matrix(1.00, 0.00, -0.00, -1.00, 766.0, 130.4)">e</text><text xml:space="preserve" font-family="Impact,Impact" font-weight="bold" font-size="59.2" fill="#FEFFFF" transform="matrix(1.00, 0.00, -0.00, -1.00, 796.3, 130.4)">n</text><text xml:space="preserve" font-family="Impact,Impact" font-weight="bold" font-size="59.2" fill="#FEFFFF" transform="matrix(1.00, 0.00, -0.00, -1.00, 827.2, 130.4)">t</text><text xml:space="preserve" font-family="Impact,Impact" font-weight="bold" font-size="59.2" fill="#FEFFFF" transform="matrix(1.00, 0.00, -0.00, -1.00, 845.3, 130.4)"> </text><text xml:space="preserve" font-family="Impact,Impact" font-weight="bold" font-size="59.2" fill="#FEFFFF" transform="matrix(1.00, 0.00, -0.00, -1.00, 359.8, 58.4)">c</text><text xml:space="preserve" font-family="Impact,Impact" font-weight="bold" font-size="59.2" fill="#FEFFFF" transform="matrix(1.00, 0.00, -0.00, -1.00, 389.1, 58.4)">o</text><text xml:space="preserve" font-family="Impact,Impact" font-weight="bold" font-size="59.2" fill="#FEFFFF" transform="matrix(1.00, 0.00, -0.00, -1.00, 419.4, 58.4)">n</text><text xml:space="preserve" font-family="Impact,Impact" font-weight="bold" font-size="59.2" fill="#FEFFFF" transform="matrix(1.00, 0.00, -0.00, -1.00, 450.3, 58.4)">n</text><text xml:space="preserve" font-family="Impact,Impact" font-weight="bold" font-size="59.2" fill="#FEFFFF" transform="matrix(1.00, 0.00, -0.00, -1.00, 481.3, 58.4)">e</text><text xml:space="preserve" font-family="Impact,Impact" font-weight="bold" font-size="59.2" fill="#FEFFFF" transform="matrix(1.00, 0.00, -0.00, -1.00, 511.6, 58.4)">c</text><text xml:space="preserve" font-family="Impact,Impact" font-weight="bold" font-size="59.2" fill="#FEFFFF" transform="matrix(1.00, 0.00, -0.00, -1.00, 540.8, 58.4)">t</text><text xml:space="preserve" font-family="Impact,Impact" font-weight="bold" font-size="59.2" fill="#FEFFFF" transform="matrix(1.00, 0.00, -0.00, -1.00, 558.8, 58.4)">i</text><text xml:space="preserve" font-family="Impact,Impact" font-weight="bold" font-size="59.2" fill="#FEFFFF" transform="matrix(1.00, 0.00, -0.00, -1.00, 575.0, 58.4)">o</text><text xml:space="preserve" font-family="Impact,Impact" font-weight="bold" font-size="59.2" fill="#FEFFFF" transform="matrix(1.00, 0.00, -0.00, -1.00, 605.3, 58.4)">n</text><text xml:space="preserve" font-family="Impact,Impact" font-weight="bold" font-size="59.2" fill="#FEFFFF" transform="matrix(1.00, 0.00, -0.00, -1.00, 636.3, 58.4)">s</text></g></svg>