<?xml version="1.0" encoding="UTF-8" standalone="no"?><svg xmlns="http://www.w3.org/2000/svg" xmlns:xlink="http://www.w3.org/1999/xlink" clip-rule="evenodd" stroke-miterlimit="10" viewBox="0 0 1024 768"><desc>SVG generated by Keynote</desc><defs></defs><g transform="matrix(1.00, 0.00, -0.00, -1.00, 0.0, 768.0)"><path d="M 0.0 768.0 L 1024.0 768.0 L 1024.0 0.0 L 0.0 0.0 Z M 0.0 768.0 " fill="#000000"></path><text xml:space="preserve" font-family="Impact,Impact" font-weight="bold" font-size="76.0" fill="#FEFFFF" transform="matrix(1.00, 0.00, -0.00, -1.00, 41.0, 659.0)">S</text><text xml:space="preserve" font-family="Impact,Impact" font-weight="bold" font-size="76.0" fill="#FEFFFF" transform="matrix(1.00, 0.00, -0.00, -1.00, 80.3, 659.0)">e</text><text xml:space="preserve" font-family="Impact,Impact" font-weight="bold" font-size="76.0" fill="#FEFFFF" transform="matrix(1.00, 0.00, -0.00, -1.00, 119.2, 659.0)">r</text><text xml:space="preserve" font-family="Impact,Impact" font-weight="bold" font-size="76.0" fill="#FEFFFF" transform="matrix(1.00, 0.00, -0.00, -1.00, 147.7, 659.0)">v</text><text xml:space="preserve" font-family="Impact,Impact" font-weight="bold" font-size="76.0" fill="#FEFFFF" transform="matrix(1.00, 0.00, -0.00, -1.00, 181.0, 659.0)">e</text><text xml:space="preserve" font-family="Impact,Impact" font-weight="bold" font-size="76.0" fill="#FEFFFF" transform="matrix(1.00, 0.00, -0.00, -1.00, 219.8, 659.0)">r</text><text xml:space="preserve" font-family="Impact,Impact" font-weight="bold" font-size="76.0" fill="#FEFFFF" transform="matrix(1.00, 0.00, -0.00, -1.00, 247.0, 659.0)"> </text><text xml:space="preserve" font-family="Impact,Impact" font-weight="bold" font-size="76.0" fill="#FEFFFF" transform="matrix(1.00, 0.00, -0.00, -1.00, 260.4, 659.0)">s</text><text xml:space="preserve" font-family="Impact,Impact" font-weight="bold" font-size="76.0" fill="#FEFFFF" transform="matrix(1.00, 0.00, -0.00, -1.00, 296.2, 659.0)">i</text><text xml:space="preserve" font-family="Impact,Impact" font-weight="bold" font-size="76.0" fill="#FEFFFF" transform="matrix(1.00, 0.00, -0.00, -1.00, 317.0, 659.0)">d</text><text xml:space="preserve" font-family="Impact,Impact" font-weight="bold" font-size="76.0" fill="#FEFFFF" transform="matrix(1.00, 0.00, -0.00, -1.00, 356.4, 659.0)">e</text><image xlink:href="../../4067D8D9-6472-436B-80BF-818B1D24FF4F/assets/3E805A23A97178817202DFEFF2FECDEF.png" width="2000.00" height="541.00" transform="matrix(0.43, 0.00, -0.00, -0.43, 44.0, 501.0)"></image></g></svg>