<?xml version="1.0" encoding="UTF-8" standalone="no"?><svg xmlns="http://www.w3.org/2000/svg" xmlns:xlink="http://www.w3.org/1999/xlink" clip-rule="evenodd" stroke-miterlimit="10" viewBox="0 0 1024 768"><desc>SVG generated by Keynote</desc><defs></defs><g transform="matrix(1.00, 0.00, -0.00, -1.00, 0.0, 768.0)"><path d="M 0.0 768.0 L 1024.0 768.0 L 1024.0 0.0 L 0.0 0.0 Z M 0.0 768.0 " fill="#000000"></path><g><clipPath id="clip0x608000cba100"><path d="M 251.0 729.0 L 942.0 729.0 L 942.0 39.0 L 251.0 39.0 Z M 251.2 729.3 "></path></clipPath><g clip-path="url(#clip0x608000cba100)"><image xlink:href="../../22E4B071-4433-4DD4-9C12-EB4E17A4C71A/assets/984FD498EBEFE260BD284A0E477041FA.png" width="1052.00" height="1052.00" transform="matrix(0.66, 0.00, -0.00, -0.66, 251.0, 729.0)"></image></g></g><text xml:space="preserve" font-family="Impact,Impact" font-weight="bold" font-size="91.0" fill="#FEFFFF" transform="matrix(1.00, 0.00, -0.00, -1.00, 62.0, 652.2)">N</text><text xml:space="preserve" font-family="Impact,Impact" font-weight="bold" font-size="91.0" fill="#FEFFFF" transform="matrix(1.00, 0.00, -0.00, -1.00, 111.2, 652.2)">o</text><text xml:space="preserve" font-family="Impact,Impact" font-weight="bold" font-size="91.0" fill="#FEFFFF" transform="matrix(1.00, 0.00, -0.00, -1.00, 157.8, 652.2)">d</text><text xml:space="preserve" font-family="Impact,Impact" font-weight="bold" font-size="91.0" fill="#FEFFFF" transform="matrix(1.00, 0.00, -0.00, -1.00, 205.0, 652.2)">e</text><text xml:space="preserve" font-family="Impact,Impact" font-weight="bold" font-size="91.0" fill="#FEFFFF" transform="matrix(1.00, 0.00, -0.00, -1.00, 251.5, 652.2)">C</text><text xml:space="preserve" font-family="Impact,Impact" font-weight="bold" font-size="91.0" fill="#FEFFFF" transform="matrix(1.00, 0.00, -0.00, -1.00, 301.9, 652.2)">o</text><text xml:space="preserve" font-family="Impact,Impact" font-weight="bold" font-size="91.0" fill="#FEFFFF" transform="matrix(1.00, 0.00, -0.00, -1.00, 348.4, 652.2)">p</text><text xml:space="preserve" font-family="Impact,Impact" font-weight="bold" font-size="91.0" fill="#FEFFFF" transform="matrix(1.00, 0.00, -0.00, -1.00, 395.7, 652.2)">t</text><text xml:space="preserve" font-family="Impact,Impact" font-weight="bold" font-size="91.0" fill="#FEFFFF" transform="matrix(1.00, 0.00, -0.00, -1.00, 423.4, 652.2)">e</text><text xml:space="preserve" font-family="Impact,Impact" font-weight="bold" font-size="91.0" fill="#FEFFFF" transform="matrix(1.00, 0.00, -0.00, -1.00, 469.9, 652.2)">r</text></g></svg>