<?xml version="1.0" encoding="UTF-8" standalone="no"?><svg xmlns="http://www.w3.org/2000/svg" xmlns:xlink="http://www.w3.org/1999/xlink" clip-rule="evenodd" stroke-miterlimit="10" viewBox="0 0 1024 768"><desc>SVG generated by Keynote</desc><defs></defs><g transform="matrix(1.00, 0.00, -0.00, -1.00, 0.0, 768.0)"><path d="M 0.0 768.0 L 1024.0 768.0 L 1024.0 0.0 L 0.0 0.0 Z M 0.0 768.0 " fill="#000000"></path><text xml:space="preserve" font-family="Impact,Impact" font-weight="bold" font-size="69.2" fill="#FEFFFF" transform="matrix(1.00, 0.00, -0.00, -1.00, 46.3, 398.8)">W</text><text xml:space="preserve" font-family="Impact,Impact" font-weight="bold" font-size="69.2" fill="#FEFFFF" transform="matrix(1.00, 0.00, -0.00, -1.00, 102.7, 398.8)">o</text><text xml:space="preserve" font-family="Impact,Impact" font-weight="bold" font-size="69.2" fill="#FEFFFF" transform="matrix(1.00, 0.00, -0.00, -1.00, 138.1, 398.8)">r</text><text xml:space="preserve" font-family="Impact,Impact" font-weight="bold" font-size="69.2" fill="#FEFFFF" transform="matrix(1.00, 0.00, -0.00, -1.00, 162.8, 398.8)">k</text><text xml:space="preserve" font-family="Impact,Impact" font-weight="bold" font-size="69.2" fill="#FEFFFF" transform="matrix(1.00, 0.00, -0.00, -1.00, 195.9, 398.8)">i</text><text xml:space="preserve" font-family="Impact,Impact" font-weight="bold" font-size="69.2" fill="#FEFFFF" transform="matrix(1.00, 0.00, -0.00, -1.00, 214.8, 398.8)">n</text><text xml:space="preserve" font-family="Impact,Impact" font-weight="bold" font-size="69.2" fill="#FEFFFF" transform="matrix(1.00, 0.00, -0.00, -1.00, 251.0, 398.8)">g</text><text xml:space="preserve" font-family="Impact,Impact" font-weight="bold" font-size="69.2" fill="#FEFFFF" transform="matrix(1.00, 0.00, -0.00, -1.00, 286.8, 398.8)"> </text><text xml:space="preserve" font-family="Impact,Impact" font-weight="bold" font-size="69.2" fill="#FEFFFF" transform="matrix(1.00, 0.00, -0.00, -1.00, 299.0, 398.8)">i</text><text xml:space="preserve" font-family="Impact,Impact" font-weight="bold" font-size="69.2" fill="#FEFFFF" transform="matrix(1.00, 0.00, -0.00, -1.00, 318.0, 398.8)">n</text><text xml:space="preserve" font-family="Impact,Impact" font-weight="bold" font-size="69.2" fill="#FEFFFF" transform="matrix(1.00, 0.00, -0.00, -1.00, 354.1, 398.8)"> </text><text xml:space="preserve" font-family="Impact,Impact" font-weight="bold" font-size="69.2" fill="#FEFFFF" transform="matrix(1.00, 0.00, -0.00, -1.00, 366.3, 398.8)">s</text><text xml:space="preserve" font-family="Impact,Impact" font-weight="bold" font-size="69.2" fill="#FEFFFF" transform="matrix(1.00, 0.00, -0.00, -1.00, 398.9, 398.8)">o</text><text xml:space="preserve" font-family="Impact,Impact" font-weight="bold" font-size="69.2" fill="#FEFFFF" transform="matrix(1.00, 0.00, -0.00, -1.00, 434.2, 398.8)">f</text><text xml:space="preserve" font-family="Impact,Impact" font-weight="bold" font-size="69.2" fill="#FEFFFF" transform="matrix(1.00, 0.00, -0.00, -1.00, 454.2, 398.8)">t</text><text xml:space="preserve" font-family="Impact,Impact" font-weight="bold" font-size="69.2" fill="#FEFFFF" transform="matrix(1.00, 0.00, -0.00, -1.00, 475.3, 398.8)">w</text><text xml:space="preserve" font-family="Impact,Impact" font-weight="bold" font-size="69.2" fill="#FEFFFF" transform="matrix(1.00, 0.00, -0.00, -1.00, 521.6, 398.8)">a</text><text xml:space="preserve" font-family="Impact,Impact" font-weight="bold" font-size="69.2" fill="#FEFFFF" transform="matrix(1.00, 0.00, -0.00, -1.00, 556.5, 398.8)">r</text><text xml:space="preserve" font-family="Impact,Impact" font-weight="bold" font-size="69.2" fill="#FEFFFF" transform="matrix(1.00, 0.00, -0.00, -1.00, 581.2, 398.8)">e</text><text xml:space="preserve" font-family="Impact,Impact" font-weight="bold" font-size="69.2" fill="#FEFFFF" transform="matrix(1.00, 0.00, -0.00, -1.00, 616.6, 398.8)"> </text><text xml:space="preserve" font-family="Impact,Impact" font-weight="bold" font-size="69.2" fill="#FEFFFF" transform="matrix(1.00, 0.00, -0.00, -1.00, 628.8, 398.8)">e</text><text xml:space="preserve" font-family="Impact,Impact" font-weight="bold" font-size="69.2" fill="#FEFFFF" transform="matrix(1.00, 0.00, -0.00, -1.00, 664.2, 398.8)">n</text><text xml:space="preserve" font-family="Impact,Impact" font-weight="bold" font-size="69.2" fill="#FEFFFF" transform="matrix(1.00, 0.00, -0.00, -1.00, 700.3, 398.8)">g</text><text xml:space="preserve" font-family="Impact,Impact" font-weight="bold" font-size="69.2" fill="#FEFFFF" transform="matrix(1.00, 0.00, -0.00, -1.00, 736.1, 398.8)">i</text><text xml:space="preserve" font-family="Impact,Impact" font-weight="bold" font-size="69.2" fill="#FEFFFF" transform="matrix(1.00, 0.00, -0.00, -1.00, 755.1, 398.8)">n</text><text xml:space="preserve" font-family="Impact,Impact" font-weight="bold" font-size="69.2" fill="#FEFFFF" transform="matrix(1.00, 0.00, -0.00, -1.00, 791.2, 398.8)">e</text><text xml:space="preserve" font-family="Impact,Impact" font-weight="bold" font-size="69.2" fill="#FEFFFF" transform="matrix(1.00, 0.00, -0.00, -1.00, 826.6, 398.8)">e</text><text xml:space="preserve" font-family="Impact,Impact" font-weight="bold" font-size="69.2" fill="#FEFFFF" transform="matrix(1.00, 0.00, -0.00, -1.00, 862.0, 398.8)">r</text><text xml:space="preserve" font-family="Impact,Impact" font-weight="bold" font-size="69.2" fill="#FEFFFF" transform="matrix(1.00, 0.00, -0.00, -1.00, 886.7, 398.8)">i</text><text xml:space="preserve" font-family="Impact,Impact" font-weight="bold" font-size="69.2" fill="#FEFFFF" transform="matrix(1.00, 0.00, -0.00, -1.00, 905.7, 398.8)">n</text><text xml:space="preserve" font-family="Impact,Impact" font-weight="bold" font-size="69.2" fill="#FEFFFF" transform="matrix(1.00, 0.00, -0.00, -1.00, 941.8, 398.8)">g</text><text xml:space="preserve" font-family="Impact,Impact" font-weight="bold" font-size="69.2" fill="#FEFFFF" transform="matrix(1.00, 0.00, -0.00, -1.00, 977.7, 398.8)"> </text><text xml:space="preserve" font-family="Impact,Impact" font-weight="bold" font-size="69.2" fill="#FEFFFF" transform="matrix(1.00, 0.00, -0.00, -1.00, 363.1, 313.8)">s</text><text xml:space="preserve" font-family="Impact,Impact" font-weight="bold" font-size="69.2" fill="#FEFFFF" transform="matrix(1.00, 0.00, -0.00, -1.00, 395.7, 313.8)">i</text><text xml:space="preserve" font-family="Impact,Impact" font-weight="bold" font-size="69.2" fill="#FEFFFF" transform="matrix(1.00, 0.00, -0.00, -1.00, 414.6, 313.8)">n</text><text xml:space="preserve" font-family="Impact,Impact" font-weight="bold" font-size="69.2" fill="#FEFFFF" transform="matrix(1.00, 0.00, -0.00, -1.00, 450.7, 313.8)">c</text><text xml:space="preserve" font-family="Impact,Impact" font-weight="bold" font-size="69.2" fill="#FEFFFF" transform="matrix(1.00, 0.00, -0.00, -1.00, 484.9, 313.8)">e</text><text xml:space="preserve" font-family="Impact,Impact" font-weight="bold" font-size="69.2" fill="#FEFFFF" transform="matrix(1.00, 0.00, -0.00, -1.00, 520.3, 313.8)"> </text><text xml:space="preserve" font-family="Impact,Impact" font-weight="bold" font-size="69.2" fill="#FEFFFF" transform="matrix(1.00, 0.00, -0.00, -1.00, 532.6, 313.8)">1</text><text xml:space="preserve" font-family="Impact,Impact" font-weight="bold" font-size="69.2" fill="#FEFFFF" transform="matrix(1.00, 0.00, -0.00, -1.00, 558.9, 313.8)">9</text><text xml:space="preserve" font-family="Impact,Impact" font-weight="bold" font-size="69.2" fill="#FEFFFF" transform="matrix(1.00, 0.00, -0.00, -1.00, 596.3, 313.8)">9</text><text xml:space="preserve" font-family="Impact,Impact" font-weight="bold" font-size="69.2" fill="#FEFFFF" transform="matrix(1.00, 0.00, -0.00, -1.00, 633.7, 313.8)">7</text></g></svg>