<?xml version="1.0" encoding="UTF-8" standalone="no"?><svg xmlns="http://www.w3.org/2000/svg" xmlns:xlink="http://www.w3.org/1999/xlink" clip-rule="evenodd" stroke-miterlimit="10" viewBox="0 0 1024 768"><desc>SVG generated by Keynote</desc><defs></defs><g transform="matrix(1.00, 0.00, -0.00, -1.00, 0.0, 768.0)"><path d="M 0.0 768.0 L 1024.0 768.0 L 1024.0 0.0 L 0.0 0.0 Z M 0.0 768.0 " fill="#000000"></path><text xml:space="preserve" font-family="Impact,Impact" font-weight="bold" font-size="80.0" fill="#FEFFFF" transform="matrix(1.00, 0.00, -0.00, -1.00, 216.6, 498.7)">W</text><text xml:space="preserve" font-family="Impact,Impact" font-weight="bold" font-size="80.0" fill="#FEFFFF" transform="matrix(1.00, 0.00, -0.00, -1.00, 281.8, 498.7)">H</text><text xml:space="preserve" font-family="Impact,Impact" font-weight="bold" font-size="80.0" fill="#FEFFFF" transform="matrix(1.00, 0.00, -0.00, -1.00, 326.2, 498.7)">A</text><text xml:space="preserve" font-family="Impact,Impact" font-weight="bold" font-size="80.0" fill="#FEFFFF" transform="matrix(1.00, 0.00, -0.00, -1.00, 362.4, 498.7)">T</text><text xml:space="preserve" font-family="Impact,Impact" font-weight="bold" font-size="80.0" fill="#FEFFFF" transform="matrix(1.00, 0.00, -0.00, -1.00, 399.2, 498.7)"> </text><text xml:space="preserve" font-family="Impact,Impact" font-weight="bold" font-size="80.0" fill="#FEFFFF" transform="matrix(1.00, 0.00, -0.00, -1.00, 413.4, 498.7)">M</text><text xml:space="preserve" font-family="Impact,Impact" font-weight="bold" font-size="80.0" fill="#FEFFFF" transform="matrix(1.00, 0.00, -0.00, -1.00, 470.7, 498.7)">A</text><text xml:space="preserve" font-family="Impact,Impact" font-weight="bold" font-size="80.0" fill="#FEFFFF" transform="matrix(1.00, 0.00, -0.00, -1.00, 511.3, 498.7)">K</text><text xml:space="preserve" font-family="Impact,Impact" font-weight="bold" font-size="80.0" fill="#FEFFFF" transform="matrix(1.00, 0.00, -0.00, -1.00, 554.2, 498.7)">E</text><text xml:space="preserve" font-family="Impact,Impact" font-weight="bold" font-size="80.0" fill="#FEFFFF" transform="matrix(1.00, 0.00, -0.00, -1.00, 587.4, 498.7)">S</text><text xml:space="preserve" font-family="Impact,Impact" font-weight="bold" font-size="80.0" fill="#FEFFFF" transform="matrix(1.00, 0.00, -0.00, -1.00, 628.8, 498.7)"> </text><text xml:space="preserve" font-family="Impact,Impact" font-weight="bold" font-size="80.0" fill="#FEFFFF" transform="matrix(1.00, 0.00, -0.00, -1.00, 642.9, 498.7)">N</text><text xml:space="preserve" font-family="Impact,Impact" font-weight="bold" font-size="80.0" fill="#FEFFFF" transform="matrix(1.00, 0.00, -0.00, -1.00, 686.2, 498.7)">O</text><text xml:space="preserve" font-family="Impact,Impact" font-weight="bold" font-size="80.0" fill="#FEFFFF" transform="matrix(1.00, 0.00, -0.00, -1.00, 729.9, 498.7)">D</text><text xml:space="preserve" font-family="Impact,Impact" font-weight="bold" font-size="80.0" fill="#FEFFFF" transform="matrix(1.00, 0.00, -0.00, -1.00, 774.1, 498.7)">E</text><text xml:space="preserve" font-family="Impact,Impact" font-weight="bold" font-size="80.0" fill="#FEFFFF" transform="matrix(1.00, 0.00, -0.00, -1.00, 807.3, 498.7)"> </text><text xml:space="preserve" font-family="Impact,Impact" font-weight="bold" font-size="80.0" fill="#FEFFFF" transform="matrix(1.00, 0.00, -0.00, -1.00, 394.2, 400.7)">G</text><text xml:space="preserve" font-family="Impact,Impact" font-weight="bold" font-size="80.0" fill="#FEFFFF" transform="matrix(1.00, 0.00, -0.00, -1.00, 438.4, 400.7)">R</text><text xml:space="preserve" font-family="Impact,Impact" font-weight="bold" font-size="80.0" fill="#FEFFFF" transform="matrix(1.00, 0.00, -0.00, -1.00, 481.4, 400.7)">E</text><text xml:space="preserve" font-family="Impact,Impact" font-weight="bold" font-size="80.0" fill="#FEFFFF" transform="matrix(1.00, 0.00, -0.00, -1.00, 514.6, 400.7)">A</text><text xml:space="preserve" font-family="Impact,Impact" font-weight="bold" font-size="80.0" fill="#FEFFFF" transform="matrix(1.00, 0.00, -0.00, -1.00, 550.8, 400.7)">T</text><text xml:space="preserve" font-family="Impact,Impact" font-weight="bold" font-size="80.0" fill="#FEFFFF" transform="matrix(1.00, 0.00, -0.00, -1.00, 587.7, 400.7)">?</text><text xml:space="preserve" font-family="Impact,Impact" font-weight="bold" font-size="80.0" fill="#FEFFFF" transform="matrix(1.00, 0.00, -0.00, -1.00, 629.7, 400.7)"> </text><text xml:space="preserve" font-family="Impact,Impact" font-weight="bold" font-size="80.0" fill="#FEFFFF" transform="matrix(1.00, 0.00, -0.00, -1.00, 424.9, 204.7)">(</text><text xml:space="preserve" font-family="Impact,Impact" font-weight="bold" font-size="80.0" fill="#FEFFFF" transform="matrix(1.00, 0.00, -0.00, -1.00, 450.0, 204.7)">I</text><text xml:space="preserve" font-family="Impact,Impact" font-weight="bold" font-size="80.0" fill="#FEFFFF" transform="matrix(1.00, 0.00, -0.00, -1.00, 473.1, 204.7)">M</text><text xml:space="preserve" font-family="Impact,Impact" font-weight="bold" font-size="80.0" fill="#FEFFFF" transform="matrix(1.00, 0.00, -0.00, -1.00, 530.4, 204.7)">O</text><text xml:space="preserve" font-family="Impact,Impact" font-weight="bold" font-size="80.0" fill="#FEFFFF" transform="matrix(1.00, 0.00, -0.00, -1.00, 574.1, 204.7)">)</text></g></svg>