<?xml version="1.0" encoding="UTF-8" standalone="no"?><svg xmlns="http://www.w3.org/2000/svg" xmlns:xlink="http://www.w3.org/1999/xlink" clip-rule="evenodd" stroke-miterlimit="10" viewBox="0 0 1024 768"><desc>SVG generated by Keynote</desc><defs></defs><g transform="matrix(1.00, 0.00, -0.00, -1.00, 0.0, 768.0)"><path d="M 0.0 768.0 L 1024.0 768.0 L 1024.0 0.0 L 0.0 0.0 Z M 0.0 768.0 " fill="#000000"></path><g><clipPath id="clip0x6000008bc740"><path d="M 251.0 729.0 L 942.0 729.0 L 942.0 39.0 L 251.0 39.0 Z M 251.2 729.3 "></path></clipPath><g clip-path="url(#clip0x6000008bc740)"><image xlink:href="984FD498EBEFE260BD284A0E477041FA.png" width="1052.00" height="1052.00" transform="matrix(0.66, 0.00, -0.00, -0.66, 251.0, 729.0)"></image></g></g><text xml:space="preserve" font-family="Impact,Impact" font-weight="bold" font-size="49.0" fill="#FEFFFF" transform="matrix(1.00, 0.00, -0.00, -1.00, 37.9, 688.3)">J</text><text xml:space="preserve" font-family="Impact,Impact" font-weight="bold" font-size="49.0" fill="#FEFFFF" transform="matrix(1.00, 0.00, -0.00, -1.00, 54.1, 688.3)">a</text><text xml:space="preserve" font-family="Impact,Impact" font-weight="bold" font-size="49.0" fill="#FEFFFF" transform="matrix(1.00, 0.00, -0.00, -1.00, 78.8, 688.3)">v</text><text xml:space="preserve" font-family="Impact,Impact" font-weight="bold" font-size="49.0" fill="#FEFFFF" transform="matrix(1.00, 0.00, -0.00, -1.00, 100.2, 688.3)">a</text><text xml:space="preserve" font-family="Impact,Impact" font-weight="bold" font-size="49.0" fill="#FEFFFF" transform="matrix(1.00, 0.00, -0.00, -1.00, 124.9, 688.3)">S</text><text xml:space="preserve" font-family="Impact,Impact" font-weight="bold" font-size="49.0" fill="#FEFFFF" transform="matrix(1.00, 0.00, -0.00, -1.00, 150.2, 688.3)">c</text><text xml:space="preserve" font-family="Impact,Impact" font-weight="bold" font-size="49.0" fill="#FEFFFF" transform="matrix(1.00, 0.00, -0.00, -1.00, 174.4, 688.3)">r</text><text xml:space="preserve" font-family="Impact,Impact" font-weight="bold" font-size="49.0" fill="#FEFFFF" transform="matrix(1.00, 0.00, -0.00, -1.00, 192.0, 688.3)">i</text><text xml:space="preserve" font-family="Impact,Impact" font-weight="bold" font-size="49.0" fill="#FEFFFF" transform="matrix(1.00, 0.00, -0.00, -1.00, 205.4, 688.3)">p</text><text xml:space="preserve" font-family="Impact,Impact" font-weight="bold" font-size="49.0" fill="#FEFFFF" transform="matrix(1.00, 0.00, -0.00, -1.00, 230.8, 688.3)">t</text><text xml:space="preserve" font-family="Impact,Impact" font-weight="bold" font-size="49.0" fill="#FEFFFF" transform="matrix(1.00, 0.00, -0.00, -1.00, 245.7, 688.3)"> </text><text xml:space="preserve" font-family="Impact,Impact" font-weight="bold" font-size="49.0" fill="#FEFFFF" transform="matrix(1.00, 0.00, -0.00, -1.00, 254.4, 688.3)">r</text><text xml:space="preserve" font-family="Impact,Impact" font-weight="bold" font-size="49.0" fill="#FEFFFF" transform="matrix(1.00, 0.00, -0.00, -1.00, 271.9, 688.3)">u</text><text xml:space="preserve" font-family="Impact,Impact" font-weight="bold" font-size="49.0" fill="#FEFFFF" transform="matrix(1.00, 0.00, -0.00, -1.00, 297.6, 688.3)">l</text><text xml:space="preserve" font-family="Impact,Impact" font-weight="bold" font-size="49.0" fill="#FEFFFF" transform="matrix(1.00, 0.00, -0.00, -1.00, 311.0, 688.3)">e</text><text xml:space="preserve" font-family="Impact,Impact" font-weight="bold" font-size="49.0" fill="#FEFFFF" transform="matrix(1.00, 0.00, -0.00, -1.00, 336.0, 688.3)">s</text><text xml:space="preserve" font-family="Impact,Impact" font-weight="bold" font-size="49.0" fill="#FEFFFF" transform="matrix(1.00, 0.00, -0.00, -1.00, 359.1, 688.3)"> </text><text xml:space="preserve" font-family="Impact,Impact" font-weight="bold" font-size="49.0" fill="#FEFFFF" transform="matrix(1.00, 0.00, -0.00, -1.00, 367.7, 688.3)">t</text><text xml:space="preserve" font-family="Impact,Impact" font-weight="bold" font-size="49.0" fill="#FEFFFF" transform="matrix(1.00, 0.00, -0.00, -1.00, 382.6, 688.3)">h</text><text xml:space="preserve" font-family="Impact,Impact" font-weight="bold" font-size="49.0" fill="#FEFFFF" transform="matrix(1.00, 0.00, -0.00, -1.00, 408.3, 688.3)">e</text><text xml:space="preserve" font-family="Impact,Impact" font-weight="bold" font-size="49.0" fill="#FEFFFF" transform="matrix(1.00, 0.00, -0.00, -1.00, 433.4, 688.3)"> </text><text xml:space="preserve" font-family="Impact,Impact" font-weight="bold" font-size="49.0" fill="#FEFFFF" transform="matrix(1.00, 0.00, -0.00, -1.00, 442.0, 688.3)">w</text><text xml:space="preserve" font-family="Impact,Impact" font-weight="bold" font-size="49.0" fill="#FEFFFF" transform="matrix(1.00, 0.00, -0.00, -1.00, 474.8, 688.3)">o</text><text xml:space="preserve" font-family="Impact,Impact" font-weight="bold" font-size="49.0" fill="#FEFFFF" transform="matrix(1.00, 0.00, -0.00, -1.00, 499.9, 688.3)">r</text><text xml:space="preserve" font-family="Impact,Impact" font-weight="bold" font-size="49.0" fill="#FEFFFF" transform="matrix(1.00, 0.00, -0.00, -1.00, 517.4, 688.3)">l</text><text xml:space="preserve" font-family="Impact,Impact" font-weight="bold" font-size="49.0" fill="#FEFFFF" transform="matrix(1.00, 0.00, -0.00, -1.00, 530.9, 688.3)">d</text></g></svg>