<?xml version="1.0" encoding="UTF-8" standalone="no"?><svg xmlns="http://www.w3.org/2000/svg" xmlns:xlink="http://www.w3.org/1999/xlink" clip-rule="evenodd" stroke-miterlimit="10" viewBox="0 0 1024 768"><desc>SVG generated by Keynote</desc><defs></defs><g transform="matrix(1.00, 0.00, -0.00, -1.00, 0.0, 768.0)"><path d="M 0.0 768.0 L 1024.0 768.0 L 1024.0 0.0 L 0.0 0.0 Z M 0.0 768.0 " fill="#000000"></path><text xml:space="preserve" font-family="Impact,Impact" font-weight="bold" font-size="70.4" fill="#FEFFFF" transform="matrix(1.00, 0.00, -0.00, -1.00, 132.1, 622.0)">N</text><text xml:space="preserve" font-family="Impact,Impact" font-weight="bold" font-size="70.4" fill="#FEFFFF" transform="matrix(1.00, 0.00, -0.00, -1.00, 170.2, 622.0)">P</text><text xml:space="preserve" font-family="Impact,Impact" font-weight="bold" font-size="70.4" fill="#FEFFFF" transform="matrix(1.00, 0.00, -0.00, -1.00, 205.5, 622.0)">M</text><text xml:space="preserve" font-family="Impact,Impact" font-weight="bold" font-size="70.4" fill="#FEFFFF" transform="matrix(1.00, 0.00, -0.00, -1.00, 255.9, 622.0)">:</text><text xml:space="preserve" font-family="Impact,Impact" font-weight="bold" font-size="70.4" fill="#FEFFFF" transform="matrix(1.00, 0.00, -0.00, -1.00, 270.2, 622.0)"> </text><text xml:space="preserve" font-family="Impact,Impact" font-weight="bold" font-size="70.4" fill="#FEFFFF" transform="matrix(1.00, 0.00, -0.00, -1.00, 282.6, 622.0)">M</text><text xml:space="preserve" font-family="Impact,Impact" font-weight="bold" font-size="70.4" fill="#FEFFFF" transform="matrix(1.00, 0.00, -0.00, -1.00, 333.1, 622.0)">O</text><text xml:space="preserve" font-family="Impact,Impact" font-weight="bold" font-size="70.4" fill="#FEFFFF" transform="matrix(1.00, 0.00, -0.00, -1.00, 371.6, 622.0)">D</text><text xml:space="preserve" font-family="Impact,Impact" font-weight="bold" font-size="70.4" fill="#FEFFFF" transform="matrix(1.00, 0.00, -0.00, -1.00, 410.4, 622.0)">U</text><text xml:space="preserve" font-family="Impact,Impact" font-weight="bold" font-size="70.4" fill="#FEFFFF" transform="matrix(1.00, 0.00, -0.00, -1.00, 448.9, 622.0)">L</text><text xml:space="preserve" font-family="Impact,Impact" font-weight="bold" font-size="70.4" fill="#FEFFFF" transform="matrix(1.00, 0.00, -0.00, -1.00, 475.7, 622.0)">E</text><text xml:space="preserve" font-family="Impact,Impact" font-weight="bold" font-size="70.4" fill="#FEFFFF" transform="matrix(1.00, 0.00, -0.00, -1.00, 505.0, 622.0)">S</text><text xml:space="preserve" font-family="Impact,Impact" font-weight="bold" font-size="70.4" fill="#FEFFFF" transform="matrix(1.00, 0.00, -0.00, -1.00, 541.4, 622.0)"> </text><text xml:space="preserve" font-family="Impact,Impact" font-weight="bold" font-size="70.4" fill="#FEFFFF" transform="matrix(1.00, 0.00, -0.00, -1.00, 553.8, 622.0)">D</text><text xml:space="preserve" font-family="Impact,Impact" font-weight="bold" font-size="70.4" fill="#FEFFFF" transform="matrix(1.00, 0.00, -0.00, -1.00, 592.7, 622.0)">O</text><text xml:space="preserve" font-family="Impact,Impact" font-weight="bold" font-size="70.4" fill="#FEFFFF" transform="matrix(1.00, 0.00, -0.00, -1.00, 631.2, 622.0)">N</text><text xml:space="preserve" font-family="Impact,Impact" font-weight="bold" font-size="70.4" fill="#FEFFFF" transform="matrix(1.00, 0.00, -0.00, -1.00, 669.3, 622.0)">E</text><text xml:space="preserve" font-family="Impact,Impact" font-weight="bold" font-size="70.4" fill="#FEFFFF" transform="matrix(1.00, 0.00, -0.00, -1.00, 698.5, 622.0)"> </text><text xml:space="preserve" font-family="Impact,Impact" font-weight="bold" font-size="70.4" fill="#FEFFFF" transform="matrix(1.00, 0.00, -0.00, -1.00, 710.9, 622.0)"> </text><text xml:space="preserve" font-family="Impact,Impact" font-weight="bold" font-size="70.4" fill="#FEFFFF" transform="matrix(1.00, 0.00, -0.00, -1.00, 723.4, 622.0)">R</text><text xml:space="preserve" font-family="Impact,Impact" font-weight="bold" font-size="70.4" fill="#FEFFFF" transform="matrix(1.00, 0.00, -0.00, -1.00, 761.2, 622.0)">I</text><text xml:space="preserve" font-family="Impact,Impact" font-weight="bold" font-size="70.4" fill="#FEFFFF" transform="matrix(1.00, 0.00, -0.00, -1.00, 781.5, 622.0)">G</text><text xml:space="preserve" font-family="Impact,Impact" font-weight="bold" font-size="70.4" fill="#FEFFFF" transform="matrix(1.00, 0.00, -0.00, -1.00, 820.4, 622.0)">H</text><text xml:space="preserve" font-family="Impact,Impact" font-weight="bold" font-size="70.4" fill="#FEFFFF" transform="matrix(1.00, 0.00, -0.00, -1.00, 859.5, 622.0)">T</text><text xml:space="preserve" font-family="Impact,Impact" font-weight="bold" font-size="70.4" fill="#FEFFFF" transform="matrix(1.00, 0.00, -0.00, -1.00, 891.9, 622.0)"> </text><text xml:space="preserve" font-family="Impact,Impact" font-weight="bold" font-size="52.8" fill="#FEFFFF" transform="matrix(1.00, 0.00, -0.00, -1.00, 104.0, 457.3)">•</text><text xml:space="preserve" font-family="Impact,Impact" font-weight="bold" font-size="70.4" fill="#FEFFFF" transform="matrix(1.00, 0.00, -0.00, -1.00, 168.8, 450.0)">S</text><text xml:space="preserve" font-family="Impact,Impact" font-weight="bold" font-size="70.4" fill="#FEFFFF" transform="matrix(1.00, 0.00, -0.00, -1.00, 205.3, 450.0)">E</text><text xml:space="preserve" font-family="Impact,Impact" font-weight="bold" font-size="70.4" fill="#FEFFFF" transform="matrix(1.00, 0.00, -0.00, -1.00, 234.4, 450.0)">V</text><text xml:space="preserve" font-family="Impact,Impact" font-weight="bold" font-size="70.4" fill="#FEFFFF" transform="matrix(1.00, 0.00, -0.00, -1.00, 271.3, 450.0)">E</text><text xml:space="preserve" font-family="Impact,Impact" font-weight="bold" font-size="70.4" fill="#FEFFFF" transform="matrix(1.00, 0.00, -0.00, -1.00, 300.5, 450.0)">R</text><text xml:space="preserve" font-family="Impact,Impact" font-weight="bold" font-size="70.4" fill="#FEFFFF" transform="matrix(1.00, 0.00, -0.00, -1.00, 338.3, 450.0)">A</text><text xml:space="preserve" font-family="Impact,Impact" font-weight="bold" font-size="70.4" fill="#FEFFFF" transform="matrix(1.00, 0.00, -0.00, -1.00, 374.1, 450.0)">L</text><text xml:space="preserve" font-family="Impact,Impact" font-weight="bold" font-size="70.4" fill="#FEFFFF" transform="matrix(1.00, 0.00, -0.00, -1.00, 400.9, 450.0)"> </text><text xml:space="preserve" font-family="Impact,Impact" font-weight="bold" font-size="70.4" fill="#FEFFFF" transform="matrix(1.00, 0.00, -0.00, -1.00, 413.3, 450.0)">V</text><text xml:space="preserve" font-family="Impact,Impact" font-weight="bold" font-size="70.4" fill="#FEFFFF" transform="matrix(1.00, 0.00, -0.00, -1.00, 450.2, 450.0)">E</text><text xml:space="preserve" font-family="Impact,Impact" font-weight="bold" font-size="70.4" fill="#FEFFFF" transform="matrix(1.00, 0.00, -0.00, -1.00, 479.3, 450.0)">R</text><text xml:space="preserve" font-family="Impact,Impact" font-weight="bold" font-size="70.4" fill="#FEFFFF" transform="matrix(1.00, 0.00, -0.00, -1.00, 517.2, 450.0)">S</text><text xml:space="preserve" font-family="Impact,Impact" font-weight="bold" font-size="70.4" fill="#FEFFFF" transform="matrix(1.00, 0.00, -0.00, -1.00, 553.6, 450.0)">I</text><text xml:space="preserve" font-family="Impact,Impact" font-weight="bold" font-size="70.4" fill="#FEFFFF" transform="matrix(1.00, 0.00, -0.00, -1.00, 573.9, 450.0)">O</text><text xml:space="preserve" font-family="Impact,Impact" font-weight="bold" font-size="70.4" fill="#FEFFFF" transform="matrix(1.00, 0.00, -0.00, -1.00, 612.4, 450.0)">N</text><text xml:space="preserve" font-family="Impact,Impact" font-weight="bold" font-size="70.4" fill="#FEFFFF" transform="matrix(1.00, 0.00, -0.00, -1.00, 650.4, 450.0)">S</text><text xml:space="preserve" font-family="Impact,Impact" font-weight="bold" font-size="70.4" fill="#FEFFFF" transform="matrix(1.00, 0.00, -0.00, -1.00, 686.8, 450.0)"> </text><text xml:space="preserve" font-family="Impact,Impact" font-weight="bold" font-size="70.4" fill="#FEFFFF" transform="matrix(1.00, 0.00, -0.00, -1.00, 699.3, 450.0)">O</text><text xml:space="preserve" font-family="Impact,Impact" font-weight="bold" font-size="70.4" fill="#FEFFFF" transform="matrix(1.00, 0.00, -0.00, -1.00, 737.7, 450.0)">F</text><text xml:space="preserve" font-family="Impact,Impact" font-weight="bold" font-size="70.4" fill="#FEFFFF" transform="matrix(1.00, 0.00, -0.00, -1.00, 765.8, 450.0)"> </text><text xml:space="preserve" font-family="Impact,Impact" font-weight="bold" font-size="70.4" fill="#FEFFFF" transform="matrix(1.00, 0.00, -0.00, -1.00, 778.2, 450.0)">T</text><text xml:space="preserve" font-family="Impact,Impact" font-weight="bold" font-size="70.4" fill="#FEFFFF" transform="matrix(1.00, 0.00, -0.00, -1.00, 810.6, 450.0)">H</text><text xml:space="preserve" font-family="Impact,Impact" font-weight="bold" font-size="70.4" fill="#FEFFFF" transform="matrix(1.00, 0.00, -0.00, -1.00, 849.7, 450.0)">E</text><text xml:space="preserve" font-family="Impact,Impact" font-weight="bold" font-size="70.4" fill="#FEFFFF" transform="matrix(1.00, 0.00, -0.00, -1.00, 878.9, 450.0)"> </text><text xml:space="preserve" font-family="Impact,Impact" font-weight="bold" font-size="70.4" fill="#FEFFFF" transform="matrix(1.00, 0.00, -0.00, -1.00, 168.8, 364.0)">S</text><text xml:space="preserve" font-family="Impact,Impact" font-weight="bold" font-size="70.4" fill="#FEFFFF" transform="matrix(1.00, 0.00, -0.00, -1.00, 205.3, 364.0)">A</text><text xml:space="preserve" font-family="Impact,Impact" font-weight="bold" font-size="70.4" fill="#FEFFFF" transform="matrix(1.00, 0.00, -0.00, -1.00, 241.0, 364.0)">M</text><text xml:space="preserve" font-family="Impact,Impact" font-weight="bold" font-size="70.4" fill="#FEFFFF" transform="matrix(1.00, 0.00, -0.00, -1.00, 291.5, 364.0)">E</text><text xml:space="preserve" font-family="Impact,Impact" font-weight="bold" font-size="70.4" fill="#FEFFFF" transform="matrix(1.00, 0.00, -0.00, -1.00, 320.7, 364.0)"> </text><text xml:space="preserve" font-family="Impact,Impact" font-weight="bold" font-size="70.4" fill="#FEFFFF" transform="matrix(1.00, 0.00, -0.00, -1.00, 333.1, 364.0)">P</text><text xml:space="preserve" font-family="Impact,Impact" font-weight="bold" font-size="70.4" fill="#FEFFFF" transform="matrix(1.00, 0.00, -0.00, -1.00, 366.7, 364.0)">A</text><text xml:space="preserve" font-family="Impact,Impact" font-weight="bold" font-size="70.4" fill="#FEFFFF" transform="matrix(1.00, 0.00, -0.00, -1.00, 402.4, 364.0)">C</text><text xml:space="preserve" font-family="Impact,Impact" font-weight="bold" font-size="70.4" fill="#FEFFFF" transform="matrix(1.00, 0.00, -0.00, -1.00, 441.4, 364.0)">K</text><text xml:space="preserve" font-family="Impact,Impact" font-weight="bold" font-size="70.4" fill="#FEFFFF" transform="matrix(1.00, 0.00, -0.00, -1.00, 480.6, 364.0)">A</text><text xml:space="preserve" font-family="Impact,Impact" font-weight="bold" font-size="70.4" fill="#FEFFFF" transform="matrix(1.00, 0.00, -0.00, -1.00, 516.4, 364.0)">G</text><text xml:space="preserve" font-family="Impact,Impact" font-weight="bold" font-size="70.4" fill="#FEFFFF" transform="matrix(1.00, 0.00, -0.00, -1.00, 555.2, 364.0)">E</text><text xml:space="preserve" font-family="Impact,Impact" font-weight="bold" font-size="70.4" fill="#FEFFFF" transform="matrix(1.00, 0.00, -0.00, -1.00, 584.4, 364.0)"> </text><text xml:space="preserve" font-family="Impact,Impact" font-weight="bold" font-size="70.4" fill="#FEFFFF" transform="matrix(1.00, 0.00, -0.00, -1.00, 596.8, 364.0)">C</text><text xml:space="preserve" font-family="Impact,Impact" font-weight="bold" font-size="70.4" fill="#FEFFFF" transform="matrix(1.00, 0.00, -0.00, -1.00, 635.8, 364.0)">A</text><text xml:space="preserve" font-family="Impact,Impact" font-weight="bold" font-size="70.4" fill="#FEFFFF" transform="matrix(1.00, 0.00, -0.00, -1.00, 671.5, 364.0)">N</text><text xml:space="preserve" font-family="Impact,Impact" font-weight="bold" font-size="70.4" fill="#FEFFFF" transform="matrix(1.00, 0.00, -0.00, -1.00, 709.6, 364.0)"> </text><text xml:space="preserve" font-family="Impact,Impact" font-weight="bold" font-size="70.4" fill="#FEFFFF" transform="matrix(1.00, 0.00, -0.00, -1.00, 168.8, 278.0)">C</text><text xml:space="preserve" font-family="Impact,Impact" font-weight="bold" font-size="70.4" fill="#FEFFFF" transform="matrix(1.00, 0.00, -0.00, -1.00, 207.8, 278.0)">O</text><text xml:space="preserve" font-family="Impact,Impact" font-weight="bold" font-size="70.4" fill="#FEFFFF" transform="matrix(1.00, 0.00, -0.00, -1.00, 246.3, 278.0)">E</text><text xml:space="preserve" font-family="Impact,Impact" font-weight="bold" font-size="70.4" fill="#FEFFFF" transform="matrix(1.00, 0.00, -0.00, -1.00, 275.5, 278.0)">X</text><text xml:space="preserve" font-family="Impact,Impact" font-weight="bold" font-size="70.4" fill="#FEFFFF" transform="matrix(1.00, 0.00, -0.00, -1.00, 309.6, 278.0)">I</text><text xml:space="preserve" font-family="Impact,Impact" font-weight="bold" font-size="70.4" fill="#FEFFFF" transform="matrix(1.00, 0.00, -0.00, -1.00, 329.8, 278.0)">S</text><text xml:space="preserve" font-family="Impact,Impact" font-weight="bold" font-size="70.4" fill="#FEFFFF" transform="matrix(1.00, 0.00, -0.00, -1.00, 366.2, 278.0)">T</text><text xml:space="preserve" font-family="Impact,Impact" font-weight="bold" font-size="70.4" fill="#FEFFFF" transform="matrix(1.00, 0.00, -0.00, -1.00, 398.6, 278.0)"> </text><text xml:space="preserve" font-family="Impact,Impact" font-weight="bold" font-size="52.8" fill="#FEFFFF" transform="matrix(1.00, 0.00, -0.00, -1.00, 104.0, 199.3)">•</text><text xml:space="preserve" font-family="Impact,Impact" font-weight="bold" font-size="70.4" fill="#FEFFFF" transform="matrix(1.00, 0.00, -0.00, -1.00, 168.8, 192.0)">E</text><text xml:space="preserve" font-family="Impact,Impact" font-weight="bold" font-size="70.4" fill="#FEFFFF" transform="matrix(1.00, 0.00, -0.00, -1.00, 198.1, 192.0)">A</text><text xml:space="preserve" font-family="Impact,Impact" font-weight="bold" font-size="70.4" fill="#FEFFFF" transform="matrix(1.00, 0.00, -0.00, -1.00, 233.8, 192.0)">S</text><text xml:space="preserve" font-family="Impact,Impact" font-weight="bold" font-size="70.4" fill="#FEFFFF" transform="matrix(1.00, 0.00, -0.00, -1.00, 270.2, 192.0)">Y</text><text xml:space="preserve" font-family="Impact,Impact" font-weight="bold" font-size="70.4" fill="#FEFFFF" transform="matrix(1.00, 0.00, -0.00, -1.00, 303.5, 192.0)"> </text><text xml:space="preserve" font-family="Impact,Impact" font-weight="bold" font-size="70.4" fill="#FEFFFF" transform="matrix(1.00, 0.00, -0.00, -1.00, 316.0, 192.0)">T</text><text xml:space="preserve" font-family="Impact,Impact" font-weight="bold" font-size="70.4" fill="#FEFFFF" transform="matrix(1.00, 0.00, -0.00, -1.00, 348.4, 192.0)">O</text><text xml:space="preserve" font-family="Impact,Impact" font-weight="bold" font-size="70.4" fill="#FEFFFF" transform="matrix(1.00, 0.00, -0.00, -1.00, 386.9, 192.0)"> </text><text xml:space="preserve" font-family="Impact,Impact" font-weight="bold" font-size="70.4" fill="#FEFFFF" transform="matrix(1.00, 0.00, -0.00, -1.00, 399.3, 192.0)">P</text><text xml:space="preserve" font-family="Impact,Impact" font-weight="bold" font-size="70.4" fill="#FEFFFF" transform="matrix(1.00, 0.00, -0.00, -1.00, 434.7, 192.0)">U</text><text xml:space="preserve" font-family="Impact,Impact" font-weight="bold" font-size="70.4" fill="#FEFFFF" transform="matrix(1.00, 0.00, -0.00, -1.00, 473.2, 192.0)">B</text><text xml:space="preserve" font-family="Impact,Impact" font-weight="bold" font-size="70.4" fill="#FEFFFF" transform="matrix(1.00, 0.00, -0.00, -1.00, 512.0, 192.0)">L</text><text xml:space="preserve" font-family="Impact,Impact" font-weight="bold" font-size="70.4" fill="#FEFFFF" transform="matrix(1.00, 0.00, -0.00, -1.00, 538.8, 192.0)">I</text><text xml:space="preserve" font-family="Impact,Impact" font-weight="bold" font-size="70.4" fill="#FEFFFF" transform="matrix(1.00, 0.00, -0.00, -1.00, 559.1, 192.0)">S</text><text xml:space="preserve" font-family="Impact,Impact" font-weight="bold" font-size="70.4" fill="#FEFFFF" transform="matrix(1.00, 0.00, -0.00, -1.00, 595.5, 192.0)">H</text><text xml:space="preserve" font-family="Impact,Impact" font-weight="bold" font-size="70.4" fill="#FEFFFF" transform="matrix(1.00, 0.00, -0.00, -1.00, 634.6, 192.0)"> </text><text xml:space="preserve" font-family="Impact,Impact" font-weight="bold" font-size="70.4" fill="#FEFFFF" transform="matrix(1.00, 0.00, -0.00, -1.00, 647.1, 192.0)">A</text><text xml:space="preserve" font-family="Impact,Impact" font-weight="bold" font-size="70.4" fill="#FEFFFF" transform="matrix(1.00, 0.00, -0.00, -1.00, 682.8, 192.0)"> </text><text xml:space="preserve" font-family="Impact,Impact" font-weight="bold" font-size="70.4" fill="#FEFFFF" transform="matrix(1.00, 0.00, -0.00, -1.00, 695.2, 192.0)">M</text><text xml:space="preserve" font-family="Impact,Impact" font-weight="bold" font-size="70.4" fill="#FEFFFF" transform="matrix(1.00, 0.00, -0.00, -1.00, 745.7, 192.0)">O</text><text xml:space="preserve" font-family="Impact,Impact" font-weight="bold" font-size="70.4" fill="#FEFFFF" transform="matrix(1.00, 0.00, -0.00, -1.00, 784.2, 192.0)">D</text><text xml:space="preserve" font-family="Impact,Impact" font-weight="bold" font-size="70.4" fill="#FEFFFF" transform="matrix(1.00, 0.00, -0.00, -1.00, 823.1, 192.0)">U</text><text xml:space="preserve" font-family="Impact,Impact" font-weight="bold" font-size="70.4" fill="#FEFFFF" transform="matrix(1.00, 0.00, -0.00, -1.00, 861.6, 192.0)">L</text><text xml:space="preserve" font-family="Impact,Impact" font-weight="bold" font-size="70.4" fill="#FEFFFF" transform="matrix(1.00, 0.00, -0.00, -1.00, 888.4, 192.0)">E</text><text xml:space="preserve" font-family="Impact,Impact" font-weight="bold" font-size="70.4" fill="#FEFFFF" transform="matrix(1.00, 0.00, -0.00, -1.00, 917.6, 192.0)"> </text><text xml:space="preserve" font-family="Impact,Impact" font-weight="bold" font-size="52.8" fill="#FEFFFF" transform="matrix(1.00, 0.00, -0.00, -1.00, 104.0, 113.3)">•</text><text xml:space="preserve" font-family="Impact,Impact" font-weight="bold" font-size="70.4" fill="#FEFFFF" transform="matrix(1.00, 0.00, -0.00, -1.00, 168.8, 106.0)">E</text><text xml:space="preserve" font-family="Impact,Impact" font-weight="bold" font-size="70.4" fill="#FEFFFF" transform="matrix(1.00, 0.00, -0.00, -1.00, 198.1, 106.0)">A</text><text xml:space="preserve" font-family="Impact,Impact" font-weight="bold" font-size="70.4" fill="#FEFFFF" transform="matrix(1.00, 0.00, -0.00, -1.00, 233.8, 106.0)">S</text><text xml:space="preserve" font-family="Impact,Impact" font-weight="bold" font-size="70.4" fill="#FEFFFF" transform="matrix(1.00, 0.00, -0.00, -1.00, 270.2, 106.0)">Y</text><text xml:space="preserve" font-family="Impact,Impact" font-weight="bold" font-size="70.4" fill="#FEFFFF" transform="matrix(1.00, 0.00, -0.00, -1.00, 303.6, 106.0)"> </text><text xml:space="preserve" font-family="Impact,Impact" font-weight="bold" font-size="70.4" fill="#FEFFFF" transform="matrix(1.00, 0.00, -0.00, -1.00, 316.0, 106.0)">T</text><text xml:space="preserve" font-family="Impact,Impact" font-weight="bold" font-size="70.4" fill="#FEFFFF" transform="matrix(1.00, 0.00, -0.00, -1.00, 348.4, 106.0)">O</text><text xml:space="preserve" font-family="Impact,Impact" font-weight="bold" font-size="70.4" fill="#FEFFFF" transform="matrix(1.00, 0.00, -0.00, -1.00, 386.9, 106.0)"> </text><text xml:space="preserve" font-family="Impact,Impact" font-weight="bold" font-size="70.4" fill="#FEFFFF" transform="matrix(1.00, 0.00, -0.00, -1.00, 399.4, 106.0)">I</text><text xml:space="preserve" font-family="Impact,Impact" font-weight="bold" font-size="70.4" fill="#FEFFFF" transform="matrix(1.00, 0.00, -0.00, -1.00, 419.7, 106.0)">N</text><text xml:space="preserve" font-family="Impact,Impact" font-weight="bold" font-size="70.4" fill="#FEFFFF" transform="matrix(1.00, 0.00, -0.00, -1.00, 457.8, 106.0)">S</text><text xml:space="preserve" font-family="Impact,Impact" font-weight="bold" font-size="70.4" fill="#FEFFFF" transform="matrix(1.00, 0.00, -0.00, -1.00, 494.2, 106.0)">T</text><text xml:space="preserve" font-family="Impact,Impact" font-weight="bold" font-size="70.4" fill="#FEFFFF" transform="matrix(1.00, 0.00, -0.00, -1.00, 523.8, 106.0)">A</text><text xml:space="preserve" font-family="Impact,Impact" font-weight="bold" font-size="70.4" fill="#FEFFFF" transform="matrix(1.00, 0.00, -0.00, -1.00, 559.5, 106.0)">L</text><text xml:space="preserve" font-family="Impact,Impact" font-weight="bold" font-size="70.4" fill="#FEFFFF" transform="matrix(1.00, 0.00, -0.00, -1.00, 586.3, 106.0)">L</text><text xml:space="preserve" font-family="Impact,Impact" font-weight="bold" font-size="70.4" fill="#FEFFFF" transform="matrix(1.00, 0.00, -0.00, -1.00, 613.1, 106.0)"> </text><text xml:space="preserve" font-family="Impact,Impact" font-weight="bold" font-size="70.4" fill="#FEFFFF" transform="matrix(1.00, 0.00, -0.00, -1.00, 625.6, 106.0)">A</text><text xml:space="preserve" font-family="Impact,Impact" font-weight="bold" font-size="70.4" fill="#FEFFFF" transform="matrix(1.00, 0.00, -0.00, -1.00, 661.3, 106.0)"> </text><text xml:space="preserve" font-family="Impact,Impact" font-weight="bold" font-size="70.4" fill="#FEFFFF" transform="matrix(1.00, 0.00, -0.00, -1.00, 673.7, 106.0)">M</text><text xml:space="preserve" font-family="Impact,Impact" font-weight="bold" font-size="70.4" fill="#FEFFFF" transform="matrix(1.00, 0.00, -0.00, -1.00, 724.2, 106.0)">O</text><text xml:space="preserve" font-family="Impact,Impact" font-weight="bold" font-size="70.4" fill="#FEFFFF" transform="matrix(1.00, 0.00, -0.00, -1.00, 762.7, 106.0)">D</text><text xml:space="preserve" font-family="Impact,Impact" font-weight="bold" font-size="70.4" fill="#FEFFFF" transform="matrix(1.00, 0.00, -0.00, -1.00, 801.6, 106.0)">U</text><text xml:space="preserve" font-family="Impact,Impact" font-weight="bold" font-size="70.4" fill="#FEFFFF" transform="matrix(1.00, 0.00, -0.00, -1.00, 840.0, 106.0)">L</text><text xml:space="preserve" font-family="Impact,Impact" font-weight="bold" font-size="70.4" fill="#FEFFFF" transform="matrix(1.00, 0.00, -0.00, -1.00, 866.8, 106.0)">E</text></g></svg>