<?xml version="1.0" encoding="UTF-8" standalone="no"?><svg xmlns="http://www.w3.org/2000/svg" xmlns:xlink="http://www.w3.org/1999/xlink" clip-rule="evenodd" stroke-miterlimit="10" viewBox="0 0 1024 768"><desc>SVG generated by Keynote</desc><defs></defs><g transform="matrix(1.00, 0.00, -0.00, -1.00, 0.0, 768.0)"><path d="M 0.0 768.0 L 1024.0 768.0 L 1024.0 0.0 L 0.0 0.0 Z M 0.0 768.0 " fill="#000000"></path><g><clipPath id="clip0x608000caedc0"><path d="M 251.0 729.0 L 942.0 729.0 L 942.0 39.0 L 251.0 39.0 Z M 251.2 729.3 "></path></clipPath><g clip-path="url(#clip0x608000caedc0)"><image xlink:href="../../22E4B071-4433-4DD4-9C12-EB4E17A4C71A/assets/984FD498EBEFE260BD284A0E477041FA.png" width="1052.00" height="1052.00" transform="matrix(0.66, 0.00, -0.00, -0.66, 251.0, 729.0)"></image></g></g><text xml:space="preserve" font-family="Impact,Impact" font-weight="bold" font-size="53.0" fill="#FEFFFF" transform="matrix(1.00, 0.00, -0.00, -1.00, 66.0, 680.2)">C</text><text xml:space="preserve" font-family="Impact,Impact" font-weight="bold" font-size="53.0" fill="#FEFFFF" transform="matrix(1.00, 0.00, -0.00, -1.00, 95.3, 680.2)">o</text><text xml:space="preserve" font-family="Impact,Impact" font-weight="bold" font-size="53.0" fill="#FEFFFF" transform="matrix(1.00, 0.00, -0.00, -1.00, 122.4, 680.2)">r</text><text xml:space="preserve" font-family="Impact,Impact" font-weight="bold" font-size="53.0" fill="#FEFFFF" transform="matrix(1.00, 0.00, -0.00, -1.00, 141.4, 680.2)">d</text><text xml:space="preserve" font-family="Impact,Impact" font-weight="bold" font-size="53.0" fill="#FEFFFF" transform="matrix(1.00, 0.00, -0.00, -1.00, 168.9, 680.2)">o</text><text xml:space="preserve" font-family="Impact,Impact" font-weight="bold" font-size="53.0" fill="#FEFFFF" transform="matrix(1.00, 0.00, -0.00, -1.00, 196.0, 680.2)">v</text><text xml:space="preserve" font-family="Impact,Impact" font-weight="bold" font-size="53.0" fill="#FEFFFF" transform="matrix(1.00, 0.00, -0.00, -1.00, 219.2, 680.2)">a</text><text xml:space="preserve" font-family="Impact,Impact" font-weight="bold" font-size="53.0" fill="#FEFFFF" transform="matrix(1.00, 0.00, -0.00, -1.00, 245.9, 680.2)"> </text><text xml:space="preserve" font-family="Impact,Impact" font-weight="bold" font-size="53.0" fill="#FEFFFF" transform="matrix(1.00, 0.00, -0.00, -1.00, 255.2, 680.2)">(</text><text xml:space="preserve" font-family="Impact,Impact" font-weight="bold" font-size="53.0" fill="#FEFFFF" transform="matrix(1.00, 0.00, -0.00, -1.00, 271.9, 680.2)">f</text><text xml:space="preserve" font-family="Impact,Impact" font-weight="bold" font-size="53.0" fill="#FEFFFF" transform="matrix(1.00, 0.00, -0.00, -1.00, 287.2, 680.2)">o</text><text xml:space="preserve" font-family="Impact,Impact" font-weight="bold" font-size="53.0" fill="#FEFFFF" transform="matrix(1.00, 0.00, -0.00, -1.00, 314.3, 680.2)">r</text><text xml:space="preserve" font-family="Impact,Impact" font-weight="bold" font-size="53.0" fill="#FEFFFF" transform="matrix(1.00, 0.00, -0.00, -1.00, 333.3, 680.2)">m</text><text xml:space="preserve" font-family="Impact,Impact" font-weight="bold" font-size="53.0" fill="#FEFFFF" transform="matrix(1.00, 0.00, -0.00, -1.00, 374.1, 680.2)">e</text><text xml:space="preserve" font-family="Impact,Impact" font-weight="bold" font-size="53.0" fill="#FEFFFF" transform="matrix(1.00, 0.00, -0.00, -1.00, 401.2, 680.2)">r</text><text xml:space="preserve" font-family="Impact,Impact" font-weight="bold" font-size="53.0" fill="#FEFFFF" transform="matrix(1.00, 0.00, -0.00, -1.00, 420.2, 680.2)">l</text><text xml:space="preserve" font-family="Impact,Impact" font-weight="bold" font-size="53.0" fill="#FEFFFF" transform="matrix(1.00, 0.00, -0.00, -1.00, 434.7, 680.2)">y</text><text xml:space="preserve" font-family="Impact,Impact" font-weight="bold" font-size="53.0" fill="#FEFFFF" transform="matrix(1.00, 0.00, -0.00, -1.00, 458.5, 680.2)"> </text><text xml:space="preserve" font-family="Impact,Impact" font-weight="bold" font-size="53.0" fill="#FEFFFF" transform="matrix(1.00, 0.00, -0.00, -1.00, 467.8, 680.2)">k</text><text xml:space="preserve" font-family="Impact,Impact" font-weight="bold" font-size="53.0" fill="#FEFFFF" transform="matrix(1.00, 0.00, -0.00, -1.00, 493.2, 680.2)">n</text><text xml:space="preserve" font-family="Impact,Impact" font-weight="bold" font-size="53.0" fill="#FEFFFF" transform="matrix(1.00, 0.00, -0.00, -1.00, 520.9, 680.2)">o</text><text xml:space="preserve" font-family="Impact,Impact" font-weight="bold" font-size="53.0" fill="#FEFFFF" transform="matrix(1.00, 0.00, -0.00, -1.00, 548.0, 680.2)">w</text><text xml:space="preserve" font-family="Impact,Impact" font-weight="bold" font-size="53.0" fill="#FEFFFF" transform="matrix(1.00, 0.00, -0.00, -1.00, 583.5, 680.2)">n</text><text xml:space="preserve" font-family="Impact,Impact" font-weight="bold" font-size="53.0" fill="#FEFFFF" transform="matrix(1.00, 0.00, -0.00, -1.00, 611.2, 680.2)"> </text><text xml:space="preserve" font-family="Impact,Impact" font-weight="bold" font-size="53.0" fill="#FEFFFF" transform="matrix(1.00, 0.00, -0.00, -1.00, 620.6, 680.2)">a</text><text xml:space="preserve" font-family="Impact,Impact" font-weight="bold" font-size="53.0" fill="#FEFFFF" transform="matrix(1.00, 0.00, -0.00, -1.00, 647.3, 680.2)">s</text><text xml:space="preserve" font-family="Impact,Impact" font-weight="bold" font-size="53.0" fill="#FEFFFF" transform="matrix(1.00, 0.00, -0.00, -1.00, 672.2, 680.2)"> </text><text xml:space="preserve" font-family="Impact,Impact" font-weight="bold" font-size="53.0" fill="#FEFFFF" transform="matrix(1.00, 0.00, -0.00, -1.00, 681.6, 680.2)">P</text><text xml:space="preserve" font-family="Impact,Impact" font-weight="bold" font-size="53.0" fill="#FEFFFF" transform="matrix(1.00, 0.00, -0.00, -1.00, 708.2, 680.2)">h</text><text xml:space="preserve" font-family="Impact,Impact" font-weight="bold" font-size="53.0" fill="#FEFFFF" transform="matrix(1.00, 0.00, -0.00, -1.00, 735.9, 680.2)">o</text><text xml:space="preserve" font-family="Impact,Impact" font-weight="bold" font-size="53.0" fill="#FEFFFF" transform="matrix(1.00, 0.00, -0.00, -1.00, 763.0, 680.2)">n</text><text xml:space="preserve" font-family="Impact,Impact" font-weight="bold" font-size="53.0" fill="#FEFFFF" transform="matrix(1.00, 0.00, -0.00, -1.00, 790.7, 680.2)">e</text><text xml:space="preserve" font-family="Impact,Impact" font-weight="bold" font-size="53.0" fill="#FEFFFF" transform="matrix(1.00, 0.00, -0.00, -1.00, 817.8, 680.2)">g</text><text xml:space="preserve" font-family="Impact,Impact" font-weight="bold" font-size="53.0" fill="#FEFFFF" transform="matrix(1.00, 0.00, -0.00, -1.00, 845.3, 680.2)">a</text><text xml:space="preserve" font-family="Impact,Impact" font-weight="bold" font-size="53.0" fill="#FEFFFF" transform="matrix(1.00, 0.00, -0.00, -1.00, 872.0, 680.2)">p</text><text xml:space="preserve" font-family="Impact,Impact" font-weight="bold" font-size="53.0" fill="#FEFFFF" transform="matrix(1.00, 0.00, -0.00, -1.00, 899.5, 680.2)">)</text></g></svg>