<?xml version="1.0" encoding="UTF-8" standalone="no"?><svg xmlns="http://www.w3.org/2000/svg" xmlns:xlink="http://www.w3.org/1999/xlink" clip-rule="evenodd" stroke-miterlimit="10" viewBox="0 0 1024 768"><desc>SVG generated by Keynote</desc><defs></defs><g transform="matrix(1.00, 0.00, -0.00, -1.00, 0.0, 768.0)"><path d="M 0.0 768.0 L 1024.0 768.0 L 1024.0 0.0 L 0.0 0.0 Z M 0.0 768.0 " fill="#000000"></path><g><clipPath id="clip0x600000aa3660"><path d="M 251.0 729.0 L 942.0 729.0 L 942.0 39.0 L 251.0 39.0 Z M 251.2 729.3 "></path></clipPath><g clip-path="url(#clip0x600000aa3660)"><image xlink:href="../../22E4B071-4433-4DD4-9C12-EB4E17A4C71A/assets/984FD498EBEFE260BD284A0E477041FA.png" width="1052.00" height="1052.00" transform="matrix(0.66, 0.00, -0.00, -0.66, 251.0, 729.0)"></image></g></g><text xml:space="preserve" font-family="Impact,Impact" font-weight="bold" font-size="61.0" fill="#FEFFFF" transform="matrix(1.00, 0.00, -0.00, -1.00, 12.0, 670.9)">M</text><text xml:space="preserve" font-family="Impact,Impact" font-weight="bold" font-size="61.0" fill="#FEFFFF" transform="matrix(1.00, 0.00, -0.00, -1.00, 55.7, 670.9)">o</text><text xml:space="preserve" font-family="Impact,Impact" font-weight="bold" font-size="61.0" fill="#FEFFFF" transform="matrix(1.00, 0.00, -0.00, -1.00, 86.9, 670.9)">n</text><text xml:space="preserve" font-family="Impact,Impact" font-weight="bold" font-size="61.0" fill="#FEFFFF" transform="matrix(1.00, 0.00, -0.00, -1.00, 118.8, 670.9)">g</text><text xml:space="preserve" font-family="Impact,Impact" font-weight="bold" font-size="61.0" fill="#FEFFFF" transform="matrix(1.00, 0.00, -0.00, -1.00, 150.4, 670.9)">o</text><text xml:space="preserve" font-family="Impact,Impact" font-weight="bold" font-size="61.0" fill="#FEFFFF" transform="matrix(1.00, 0.00, -0.00, -1.00, 181.6, 670.9)">D</text><text xml:space="preserve" font-family="Impact,Impact" font-weight="bold" font-size="61.0" fill="#FEFFFF" transform="matrix(1.00, 0.00, -0.00, -1.00, 215.3, 670.9)">B</text><image xlink:href="63DFDC82D629B2772B7D7D8EE79774A9.png" width="218.00" height="65.00" transform="matrix(1.67, 0.00, -0.00, -1.68, 162.0, 606.0)"></image></g></svg>