<?xml version="1.0" encoding="UTF-8" standalone="no"?><svg xmlns="http://www.w3.org/2000/svg" xmlns:xlink="http://www.w3.org/1999/xlink" clip-rule="evenodd" stroke-miterlimit="10" viewBox="0 0 1024 768"><desc>SVG generated by Keynote</desc><defs></defs><g transform="matrix(1.00, 0.00, -0.00, -1.00, 0.0, 768.0)"><path d="M 0.0 768.0 L 1024.0 768.0 L 1024.0 0.0 L 0.0 0.0 Z M 0.0 768.0 " fill="#000000"></path><text xml:space="preserve" font-family="Impact,Impact" font-weight="bold" font-size="71.2" fill="#FEFFFF" transform="matrix(1.00, 0.00, -0.00, -1.00, 284.9, 639.2)">F</text><text xml:space="preserve" font-family="Impact,Impact" font-weight="bold" font-size="71.2" fill="#FEFFFF" transform="matrix(1.00, 0.00, -0.00, -1.00, 313.2, 639.2)">R</text><text xml:space="preserve" font-family="Impact,Impact" font-weight="bold" font-size="71.2" fill="#FEFFFF" transform="matrix(1.00, 0.00, -0.00, -1.00, 351.5, 639.2)">A</text><text xml:space="preserve" font-family="Impact,Impact" font-weight="bold" font-size="71.2" fill="#FEFFFF" transform="matrix(1.00, 0.00, -0.00, -1.00, 387.7, 639.2)">G</text><text xml:space="preserve" font-family="Impact,Impact" font-weight="bold" font-size="71.2" fill="#FEFFFF" transform="matrix(1.00, 0.00, -0.00, -1.00, 426.9, 639.2)">M</text><text xml:space="preserve" font-family="Impact,Impact" font-weight="bold" font-size="71.2" fill="#FEFFFF" transform="matrix(1.00, 0.00, -0.00, -1.00, 478.0, 639.2)">E</text><text xml:space="preserve" font-family="Impact,Impact" font-weight="bold" font-size="71.2" fill="#FEFFFF" transform="matrix(1.00, 0.00, -0.00, -1.00, 507.5, 639.2)">N</text><text xml:space="preserve" font-family="Impact,Impact" font-weight="bold" font-size="71.2" fill="#FEFFFF" transform="matrix(1.00, 0.00, -0.00, -1.00, 546.1, 639.2)">T</text><text xml:space="preserve" font-family="Impact,Impact" font-weight="bold" font-size="71.2" fill="#FEFFFF" transform="matrix(1.00, 0.00, -0.00, -1.00, 576.1, 639.2)">A</text><text xml:space="preserve" font-family="Impact,Impact" font-weight="bold" font-size="71.2" fill="#FEFFFF" transform="matrix(1.00, 0.00, -0.00, -1.00, 608.3, 639.2)">T</text><text xml:space="preserve" font-family="Impact,Impact" font-weight="bold" font-size="71.2" fill="#FEFFFF" transform="matrix(1.00, 0.00, -0.00, -1.00, 641.1, 639.2)">I</text><text xml:space="preserve" font-family="Impact,Impact" font-weight="bold" font-size="71.2" fill="#FEFFFF" transform="matrix(1.00, 0.00, -0.00, -1.00, 661.6, 639.2)">O</text><text xml:space="preserve" font-family="Impact,Impact" font-weight="bold" font-size="71.2" fill="#FEFFFF" transform="matrix(1.00, 0.00, -0.00, -1.00, 700.6, 639.2)">N</text><text xml:space="preserve" font-family="Impact,Impact" font-weight="bold" font-size="71.2" fill="#FEFFFF" transform="matrix(1.00, 0.00, -0.00, -1.00, 739.1, 639.2)"> </text><text xml:space="preserve" font-family="Impact,Impact" font-weight="bold" font-size="71.2" fill="#FEFFFF" transform="matrix(1.00, 0.00, -0.00, -1.00, 473.1, 552.2)">v</text><text xml:space="preserve" font-family="Impact,Impact" font-weight="bold" font-size="71.2" fill="#FEFFFF" transform="matrix(1.00, 0.00, -0.00, -1.00, 504.2, 552.2)">s</text><text xml:space="preserve" font-family="Impact,Impact" font-weight="bold" font-size="71.2" fill="#FEFFFF" transform="matrix(1.00, 0.00, -0.00, -1.00, 537.7, 552.2)">.</text><text xml:space="preserve" font-family="Impact,Impact" font-weight="bold" font-size="71.2" fill="#FEFFFF" transform="matrix(1.00, 0.00, -0.00, -1.00, 550.8, 552.2)"> </text><text xml:space="preserve" font-family="Impact,Impact" font-weight="bold" font-size="71.2" fill="#FEFFFF" transform="matrix(1.00, 0.00, -0.00, -1.00, 354.2, 465.2)">F</text><text xml:space="preserve" font-family="Impact,Impact" font-weight="bold" font-size="71.2" fill="#FEFFFF" transform="matrix(1.00, 0.00, -0.00, -1.00, 382.5, 465.2)">L</text><text xml:space="preserve" font-family="Impact,Impact" font-weight="bold" font-size="71.2" fill="#FEFFFF" transform="matrix(1.00, 0.00, -0.00, -1.00, 409.7, 465.2)">E</text><text xml:space="preserve" font-family="Impact,Impact" font-weight="bold" font-size="71.2" fill="#FEFFFF" transform="matrix(1.00, 0.00, -0.00, -1.00, 439.3, 465.2)">X</text><text xml:space="preserve" font-family="Impact,Impact" font-weight="bold" font-size="71.2" fill="#FEFFFF" transform="matrix(1.00, 0.00, -0.00, -1.00, 473.7, 465.2)">I</text><text xml:space="preserve" font-family="Impact,Impact" font-weight="bold" font-size="71.2" fill="#FEFFFF" transform="matrix(1.00, 0.00, -0.00, -1.00, 494.2, 465.2)">B</text><text xml:space="preserve" font-family="Impact,Impact" font-weight="bold" font-size="71.2" fill="#FEFFFF" transform="matrix(1.00, 0.00, -0.00, -1.00, 533.5, 465.2)">I</text><text xml:space="preserve" font-family="Impact,Impact" font-weight="bold" font-size="71.2" fill="#FEFFFF" transform="matrix(1.00, 0.00, -0.00, -1.00, 554.0, 465.2)">L</text><text xml:space="preserve" font-family="Impact,Impact" font-weight="bold" font-size="71.2" fill="#FEFFFF" transform="matrix(1.00, 0.00, -0.00, -1.00, 581.1, 465.2)">I</text><text xml:space="preserve" font-family="Impact,Impact" font-weight="bold" font-size="71.2" fill="#FEFFFF" transform="matrix(1.00, 0.00, -0.00, -1.00, 601.7, 465.2)">T</text><text xml:space="preserve" font-family="Impact,Impact" font-weight="bold" font-size="71.2" fill="#FEFFFF" transform="matrix(1.00, 0.00, -0.00, -1.00, 636.2, 465.2)">Y</text><image xlink:href="C8EC2831E2069ABD987BB7DE4B528379.png" width="1271.00" height="429.00" transform="matrix(0.81, 0.00, -0.00, -0.81, 0.0, 422.0)"></image></g></svg>