<?xml version="1.0" encoding="UTF-8" standalone="no"?><svg xmlns="http://www.w3.org/2000/svg" xmlns:xlink="http://www.w3.org/1999/xlink" clip-rule="evenodd" stroke-miterlimit="10" viewBox="0 0 1024 768"><desc>SVG generated by Keynote</desc><defs></defs><g transform="matrix(1.00, 0.00, -0.00, -1.00, 0.0, 768.0)"><path d="M 0.0 768.0 L 1024.0 768.0 L 1024.0 0.0 L 0.0 0.0 Z M 0.0 768.0 " fill="#000000"></path><text xml:space="preserve" font-family="Impact,Impact" font-weight="bold" font-size="80.0" fill="#FEFFFF" transform="matrix(1.00, 0.00, -0.00, -1.00, 401.5, 595.0)">P</text><text xml:space="preserve" font-family="Impact,Impact" font-weight="bold" font-size="80.0" fill="#FEFFFF" transform="matrix(1.00, 0.00, -0.00, -1.00, 441.7, 595.0)">E</text><text xml:space="preserve" font-family="Impact,Impact" font-weight="bold" font-size="80.0" fill="#FEFFFF" transform="matrix(1.00, 0.00, -0.00, -1.00, 474.9, 595.0)">O</text><text xml:space="preserve" font-family="Impact,Impact" font-weight="bold" font-size="80.0" fill="#FEFFFF" transform="matrix(1.00, 0.00, -0.00, -1.00, 518.6, 595.0)">P</text><text xml:space="preserve" font-family="Impact,Impact" font-weight="bold" font-size="80.0" fill="#FEFFFF" transform="matrix(1.00, 0.00, -0.00, -1.00, 558.8, 595.0)">L</text><text xml:space="preserve" font-family="Impact,Impact" font-weight="bold" font-size="80.0" fill="#FEFFFF" transform="matrix(1.00, 0.00, -0.00, -1.00, 589.3, 595.0)">E</text><image xlink:href="../../D19981EC-59E7-489C-8E81-C6B7F4276C8F/assets/FD1B8AC426626C5574447DFAA694CF59.png" width="249.00" height="254.00" transform="matrix(1.00, 0.00, -0.00, -1.00, 371.0, 511.0)"></image></g></svg>