<?xml version="1.0" encoding="UTF-8" standalone="no"?><svg xmlns="http://www.w3.org/2000/svg" xmlns:xlink="http://www.w3.org/1999/xlink" clip-rule="evenodd" stroke-miterlimit="10" viewBox="0 0 1024 768"><desc>SVG generated by Keynote</desc><defs></defs><g transform="matrix(1.00, 0.00, -0.00, -1.00, 0.0, 768.0)"><path d="M 0.0 768.0 L 1024.0 768.0 L 1024.0 0.0 L 0.0 0.0 Z M 0.0 768.0 " fill="#000000"></path><image xlink:href="../../679CB0CB-2E3B-43B6-B3A9-E9DE189182F7/assets/A8A5704126BBE0927158DACAA7E394E1.png" width="275.00" height="183.00" transform="matrix(0.79, 0.00, -0.00, -0.79, 657.0, 329.0)"></image><text xml:space="preserve" font-family="Impact,Impact" font-weight="bold" font-size="80.0" fill="#FEFFFF" transform="matrix(1.00, 0.00, -0.00, -1.00, 433.8, 645.9)">2</text><text xml:space="preserve" font-family="Impact,Impact" font-weight="bold" font-size="80.0" fill="#FEFFFF" transform="matrix(1.00, 0.00, -0.00, -1.00, 473.9, 645.9)">0</text><text xml:space="preserve" font-family="Impact,Impact" font-weight="bold" font-size="80.0" fill="#FEFFFF" transform="matrix(1.00, 0.00, -0.00, -1.00, 516.8, 645.9)">1</text><text xml:space="preserve" font-family="Impact,Impact" font-weight="bold" font-size="80.0" fill="#FEFFFF" transform="matrix(1.00, 0.00, -0.00, -1.00, 547.3, 645.9)">5</text><image xlink:href="../../679CB0CB-2E3B-43B6-B3A9-E9DE189182F7/assets/18D69FD3BA3BD49A291587EF3A90256B.png" width="1000.00" height="238.00" transform="matrix(0.42, 0.00, -0.00, -0.42, 63.0, 626.0)"></image><image xlink:href="../../679CB0CB-2E3B-43B6-B3A9-E9DE189182F7/assets/831568E7102D088EC75CEF5D8990A01E.png" width="2096.00" height="771.00" transform="matrix(0.33, 0.00, -0.00, -0.33, 12.0, 545.0)"></image><image xlink:href="../../679CB0CB-2E3B-43B6-B3A9-E9DE189182F7/assets/E57335CF3CCD21C86766645FB3779522.png" width="1024.00" height="272.00" transform="matrix(0.41, 0.00, -0.00, -0.42, 103.0, 313.0)"></image><image xlink:href="../../679CB0CB-2E3B-43B6-B3A9-E9DE189182F7/assets/BFAD0844BF244C0EC3393B0C525B94E7.png" width="2000.00" height="800.00" transform="matrix(0.14, 0.00, -0.00, -0.14, 686.0, 473.0)"></image><image xlink:href="../../679CB0CB-2E3B-43B6-B3A9-E9DE189182F7/assets/680B13C928FA3D3A7F39B51C3C4FF7B9.png" width="992.00" height="200.00" transform="matrix(0.44, 0.00, -0.00, -0.44, 553.0, 586.0)"></image><image xlink:href="../../679CB0CB-2E3B-43B6-B3A9-E9DE189182F7/assets/9D5CA7CC5B5F96CADE3FE5A5A31E6EE7.png" width="800.00" height="180.00" transform="matrix(0.54, 0.00, -0.00, -0.54, 549.0, 167.0)"></image><image xlink:href="../../679CB0CB-2E3B-43B6-B3A9-E9DE189182F7/assets/F579D5A7FD2D5C6E6026CAD826B59C3F.png" width="1100.00" height="480.00" transform="matrix(0.36, 0.00, -0.00, -0.35, 90.0, 217.0)"></image><image xlink:href="../../679CB0CB-2E3B-43B6-B3A9-E9DE189182F7/assets/8352173E1DC646574B0C3B3B0319E2DA.png" width="615.00" height="409.00" transform="matrix(0.35, 0.00, -0.00, -0.35, 738.0, 739.0)"></image><image xlink:href="../../679CB0CB-2E3B-43B6-B3A9-E9DE189182F7/assets/533070807C0135B64667E7F1B69CEAD4.png" width="2425.00" height="662.00" transform="matrix(0.14, 0.00, -0.00, -0.14, 47.0, 725.0)"></image></g></svg>