<?xml version="1.0" encoding="UTF-8" standalone="no"?><svg xmlns="http://www.w3.org/2000/svg" xmlns:xlink="http://www.w3.org/1999/xlink" clip-rule="evenodd" stroke-miterlimit="10" viewBox="0 0 1024 768"><desc>SVG generated by Keynote</desc><defs></defs><g transform="matrix(1.00, 0.00, -0.00, -1.00, 0.0, 768.0)"><path d="M 0.0 768.0 L 1024.0 768.0 L 1024.0 0.0 L 0.0 0.0 Z M 0.0 768.0 " fill="#000000"></path><text xml:space="preserve" font-family="Impact,Impact" font-weight="bold" font-size="74.4" fill="#FEFFFF" transform="matrix(1.00, 0.00, -0.00, -1.00, 205.1, 634.8)">T</text><text xml:space="preserve" font-family="Impact,Impact" font-weight="bold" font-size="74.4" fill="#FEFFFF" transform="matrix(1.00, 0.00, -0.00, -1.00, 239.4, 634.8)">H</text><text xml:space="preserve" font-family="Impact,Impact" font-weight="bold" font-size="74.4" fill="#FEFFFF" transform="matrix(1.00, 0.00, -0.00, -1.00, 280.7, 634.8)">E</text><text xml:space="preserve" font-family="Impact,Impact" font-weight="bold" font-size="74.4" fill="#FEFFFF" transform="matrix(1.00, 0.00, -0.00, -1.00, 311.6, 634.8)"> </text><text xml:space="preserve" font-family="Impact,Impact" font-weight="bold" font-size="74.4" fill="#FEFFFF" transform="matrix(1.00, 0.00, -0.00, -1.00, 324.7, 634.8)">U</text><text xml:space="preserve" font-family="Impact,Impact" font-weight="bold" font-size="74.4" fill="#FEFFFF" transform="matrix(1.00, 0.00, -0.00, -1.00, 365.4, 634.8)">N</text><text xml:space="preserve" font-family="Impact,Impact" font-weight="bold" font-size="74.4" fill="#FEFFFF" transform="matrix(1.00, 0.00, -0.00, -1.00, 405.6, 634.8)">I</text><text xml:space="preserve" font-family="Impact,Impact" font-weight="bold" font-size="74.4" fill="#FEFFFF" transform="matrix(1.00, 0.00, -0.00, -1.00, 427.1, 634.8)">X</text><text xml:space="preserve" font-family="Impact,Impact" font-weight="bold" font-size="74.4" fill="#FEFFFF" transform="matrix(1.00, 0.00, -0.00, -1.00, 463.0, 634.8)"> </text><text xml:space="preserve" font-family="Impact,Impact" font-weight="bold" font-size="74.4" fill="#FEFFFF" transform="matrix(1.00, 0.00, -0.00, -1.00, 476.1, 634.8)">P</text><text xml:space="preserve" font-family="Impact,Impact" font-weight="bold" font-size="74.4" fill="#FEFFFF" transform="matrix(1.00, 0.00, -0.00, -1.00, 513.5, 634.8)">H</text><text xml:space="preserve" font-family="Impact,Impact" font-weight="bold" font-size="74.4" fill="#FEFFFF" transform="matrix(1.00, 0.00, -0.00, -1.00, 554.8, 634.8)">I</text><text xml:space="preserve" font-family="Impact,Impact" font-weight="bold" font-size="74.4" fill="#FEFFFF" transform="matrix(1.00, 0.00, -0.00, -1.00, 576.2, 634.8)">L</text><text xml:space="preserve" font-family="Impact,Impact" font-weight="bold" font-size="74.4" fill="#FEFFFF" transform="matrix(1.00, 0.00, -0.00, -1.00, 604.6, 634.8)">I</text><text xml:space="preserve" font-family="Impact,Impact" font-weight="bold" font-size="74.4" fill="#FEFFFF" transform="matrix(1.00, 0.00, -0.00, -1.00, 626.0, 634.8)">S</text><text xml:space="preserve" font-family="Impact,Impact" font-weight="bold" font-size="74.4" fill="#FEFFFF" transform="matrix(1.00, 0.00, -0.00, -1.00, 664.5, 634.8)">O</text><text xml:space="preserve" font-family="Impact,Impact" font-weight="bold" font-size="74.4" fill="#FEFFFF" transform="matrix(1.00, 0.00, -0.00, -1.00, 705.2, 634.8)">P</text><text xml:space="preserve" font-family="Impact,Impact" font-weight="bold" font-size="74.4" fill="#FEFFFF" transform="matrix(1.00, 0.00, -0.00, -1.00, 742.5, 634.8)">H</text><text xml:space="preserve" font-family="Impact,Impact" font-weight="bold" font-size="74.4" fill="#FEFFFF" transform="matrix(1.00, 0.00, -0.00, -1.00, 783.8, 634.8)">Y</text><text xml:space="preserve" font-family="Impact,Impact" font-weight="bold" font-size="74.4" fill="#FEFFFF" transform="matrix(1.00, 0.00, -0.00, -1.00, 819.0, 634.8)"> </text><text xml:space="preserve" font-family="Impact,Impact" font-weight="bold" font-size="74.4" fill="#FEFFFF" transform="matrix(1.00, 0.00, -0.00, -1.00, 205.2, 452.8)">N</text><text xml:space="preserve" font-family="Impact,Impact" font-weight="bold" font-size="74.4" fill="#FEFFFF" transform="matrix(1.00, 0.00, -0.00, -1.00, 245.5, 452.8)">o</text><text xml:space="preserve" font-family="Impact,Impact" font-weight="bold" font-size="74.4" fill="#FEFFFF" transform="matrix(1.00, 0.00, -0.00, -1.00, 283.5, 452.8)">d</text><text xml:space="preserve" font-family="Impact,Impact" font-weight="bold" font-size="74.4" fill="#FEFFFF" transform="matrix(1.00, 0.00, -0.00, -1.00, 322.1, 452.8)">e</text><text xml:space="preserve" font-family="Impact,Impact" font-weight="bold" font-size="74.4" fill="#FEFFFF" transform="matrix(1.00, 0.00, -0.00, -1.00, 360.2, 452.8)"> </text><text xml:space="preserve" font-family="Impact,Impact" font-weight="bold" font-size="74.4" fill="#FEFFFF" transform="matrix(1.00, 0.00, -0.00, -1.00, 373.3, 452.8)">e</text><text xml:space="preserve" font-family="Impact,Impact" font-weight="bold" font-size="74.4" fill="#FEFFFF" transform="matrix(1.00, 0.00, -0.00, -1.00, 411.4, 452.8)">m</text><text xml:space="preserve" font-family="Impact,Impact" font-weight="bold" font-size="74.4" fill="#FEFFFF" transform="matrix(1.00, 0.00, -0.00, -1.00, 468.7, 452.8)">b</text><text xml:space="preserve" font-family="Impact,Impact" font-weight="bold" font-size="74.4" fill="#FEFFFF" transform="matrix(1.00, 0.00, -0.00, -1.00, 507.3, 452.8)">o</text><text xml:space="preserve" font-family="Impact,Impact" font-weight="bold" font-size="74.4" fill="#FEFFFF" transform="matrix(1.00, 0.00, -0.00, -1.00, 545.4, 452.8)">d</text><text xml:space="preserve" font-family="Impact,Impact" font-weight="bold" font-size="74.4" fill="#FEFFFF" transform="matrix(1.00, 0.00, -0.00, -1.00, 584.0, 452.8)">i</text><text xml:space="preserve" font-family="Impact,Impact" font-weight="bold" font-size="74.4" fill="#FEFFFF" transform="matrix(1.00, 0.00, -0.00, -1.00, 604.4, 452.8)">e</text><text xml:space="preserve" font-family="Impact,Impact" font-weight="bold" font-size="74.4" fill="#FEFFFF" transform="matrix(1.00, 0.00, -0.00, -1.00, 642.4, 452.8)">s</text><text xml:space="preserve" font-family="Impact,Impact" font-weight="bold" font-size="74.4" fill="#FEFFFF" transform="matrix(1.00, 0.00, -0.00, -1.00, 677.4, 452.8)"> </text><text xml:space="preserve" font-family="Impact,Impact" font-weight="bold" font-size="74.4" fill="#FEFFFF" transform="matrix(1.00, 0.00, -0.00, -1.00, 690.6, 452.8)">i</text><text xml:space="preserve" font-family="Impact,Impact" font-weight="bold" font-size="74.4" fill="#FEFFFF" transform="matrix(1.00, 0.00, -0.00, -1.00, 710.9, 452.8)">t</text><text xml:space="preserve" font-family="Impact,Impact" font-weight="bold" font-size="74.4" fill="#FEFFFF" transform="matrix(1.00, 0.00, -0.00, -1.00, 733.6, 452.8)"> </text><text xml:space="preserve" font-family="Impact,Impact" font-weight="bold" font-size="74.4" fill="#FEFFFF" transform="matrix(1.00, 0.00, -0.00, -1.00, 746.7, 452.8)">b</text><text xml:space="preserve" font-family="Impact,Impact" font-weight="bold" font-size="74.4" fill="#FEFFFF" transform="matrix(1.00, 0.00, -0.00, -1.00, 785.3, 452.8)">y</text><text xml:space="preserve" font-family="Impact,Impact" font-weight="bold" font-size="74.4" fill="#FEFFFF" transform="matrix(1.00, 0.00, -0.00, -1.00, 818.7, 452.8)"> </text><text xml:space="preserve" font-family="Impact,Impact" font-weight="bold" font-size="74.4" fill="#FEFFFF" transform="matrix(1.00, 0.00, -0.00, -1.00, 355.9, 361.8)">f</text><text xml:space="preserve" font-family="Impact,Impact" font-weight="bold" font-size="74.4" fill="#FEFFFF" transform="matrix(1.00, 0.00, -0.00, -1.00, 377.4, 361.8)">a</text><text xml:space="preserve" font-family="Impact,Impact" font-weight="bold" font-size="74.4" fill="#FEFFFF" transform="matrix(1.00, 0.00, -0.00, -1.00, 414.9, 361.8)">v</text><text xml:space="preserve" font-family="Impact,Impact" font-weight="bold" font-size="74.4" fill="#FEFFFF" transform="matrix(1.00, 0.00, -0.00, -1.00, 447.4, 361.8)">o</text><text xml:space="preserve" font-family="Impact,Impact" font-weight="bold" font-size="74.4" fill="#FEFFFF" transform="matrix(1.00, 0.00, -0.00, -1.00, 485.5, 361.8)">r</text><text xml:space="preserve" font-family="Impact,Impact" font-weight="bold" font-size="74.4" fill="#FEFFFF" transform="matrix(1.00, 0.00, -0.00, -1.00, 512.1, 361.8)">i</text><text xml:space="preserve" font-family="Impact,Impact" font-weight="bold" font-size="74.4" fill="#FEFFFF" transform="matrix(1.00, 0.00, -0.00, -1.00, 532.5, 361.8)">t</text><text xml:space="preserve" font-family="Impact,Impact" font-weight="bold" font-size="74.4" fill="#FEFFFF" transform="matrix(1.00, 0.00, -0.00, -1.00, 555.1, 361.8)">i</text><text xml:space="preserve" font-family="Impact,Impact" font-weight="bold" font-size="74.4" fill="#FEFFFF" transform="matrix(1.00, 0.00, -0.00, -1.00, 575.5, 361.8)">n</text><text xml:space="preserve" font-family="Impact,Impact" font-weight="bold" font-size="74.4" fill="#FEFFFF" transform="matrix(1.00, 0.00, -0.00, -1.00, 614.4, 361.8)">g</text><text xml:space="preserve" font-family="Impact,Impact" font-weight="bold" font-size="74.4" fill="#FEFFFF" transform="matrix(1.00, 0.00, -0.00, -1.00, 653.0, 361.8)">:</text><text xml:space="preserve" font-family="Impact,Impact" font-weight="bold" font-size="74.4" fill="#FEFFFF" transform="matrix(1.00, 0.00, -0.00, -1.00, 668.0, 361.8)"> </text><text xml:space="preserve" font-family="Impact,Impact" font-weight="bold" font-size="55.8" fill="#FEFFFF" transform="matrix(1.00, 0.00, -0.00, -1.00, 104.0, 187.4)">•</text><text xml:space="preserve" font-family="Impact,Impact" font-weight="bold" font-size="74.4" fill="#FEFFFF" transform="matrix(1.00, 0.00, -0.00, -1.00, 172.5, 179.8)">M</text><text xml:space="preserve" font-family="Impact,Impact" font-weight="bold" font-size="74.4" fill="#FEFFFF" transform="matrix(1.00, 0.00, -0.00, -1.00, 225.8, 179.8)">o</text><text xml:space="preserve" font-family="Impact,Impact" font-weight="bold" font-size="74.4" fill="#FEFFFF" transform="matrix(1.00, 0.00, -0.00, -1.00, 263.9, 179.8)">d</text><text xml:space="preserve" font-family="Impact,Impact" font-weight="bold" font-size="74.4" fill="#FEFFFF" transform="matrix(1.00, 0.00, -0.00, -1.00, 302.5, 179.8)">u</text><text xml:space="preserve" font-family="Impact,Impact" font-weight="bold" font-size="74.4" fill="#FEFFFF" transform="matrix(1.00, 0.00, -0.00, -1.00, 341.4, 179.8)">l</text><text xml:space="preserve" font-family="Impact,Impact" font-weight="bold" font-size="74.4" fill="#FEFFFF" transform="matrix(1.00, 0.00, -0.00, -1.00, 361.8, 179.8)">e</text><text xml:space="preserve" font-family="Impact,Impact" font-weight="bold" font-size="74.4" fill="#FEFFFF" transform="matrix(1.00, 0.00, -0.00, -1.00, 399.8, 179.8)">s</text><text xml:space="preserve" font-family="Impact,Impact" font-weight="bold" font-size="74.4" fill="#FEFFFF" transform="matrix(1.00, 0.00, -0.00, -1.00, 434.8, 179.8)"> </text><text xml:space="preserve" font-family="Impact,Impact" font-weight="bold" font-size="55.8" fill="#FEFFFF" transform="matrix(1.00, 0.00, -0.00, -1.00, 104.0, 96.4)">•</text><text xml:space="preserve" font-family="Impact,Impact" font-weight="bold" font-size="74.4" fill="#FEFFFF" transform="matrix(1.00, 0.00, -0.00, -1.00, 172.5, 88.8)">S</text><text xml:space="preserve" font-family="Impact,Impact" font-weight="bold" font-size="74.4" fill="#FEFFFF" transform="matrix(1.00, 0.00, -0.00, -1.00, 211.0, 88.8)">t</text><text xml:space="preserve" font-family="Impact,Impact" font-weight="bold" font-size="74.4" fill="#FEFFFF" transform="matrix(1.00, 0.00, -0.00, -1.00, 233.7, 88.8)">r</text><text xml:space="preserve" font-family="Impact,Impact" font-weight="bold" font-size="74.4" fill="#FEFFFF" transform="matrix(1.00, 0.00, -0.00, -1.00, 260.3, 88.8)">e</text><text xml:space="preserve" font-family="Impact,Impact" font-weight="bold" font-size="74.4" fill="#FEFFFF" transform="matrix(1.00, 0.00, -0.00, -1.00, 298.3, 88.8)">a</text><text xml:space="preserve" font-family="Impact,Impact" font-weight="bold" font-size="74.4" fill="#FEFFFF" transform="matrix(1.00, 0.00, -0.00, -1.00, 335.8, 88.8)">m</text><text xml:space="preserve" font-family="Impact,Impact" font-weight="bold" font-size="74.4" fill="#FEFFFF" transform="matrix(1.00, 0.00, -0.00, -1.00, 393.2, 88.8)">s</text></g></svg>